<?xml version="1.0" encoding="UTF-8" standalone="no"?>
<!DOCTYPE svg PUBLIC "-//W3C//DTD SVG 1.1//EN" "http://www.w3.org/Graphics/SVG/1.1/DTD/svg11.dtd">
<svg version="1.1" xmlns="http://www.w3.org/2000/svg" xmlns:xlink="http://www.w3.org/1999/xlink" preserveAspectRatio="xMidYMid meet" viewBox="0 0 640 640" width="640" height="640"><defs><path d="M212.37 54.55C191.95 76.46 191.95 111.99 212.37 133.9C217.22 139.1 241.46 165.12 285.09 211.96C143.96 211.96 65.55 211.96 49.87 211.96C22.33 211.96 0 235.92 0 265.47C0 295.02 22.33 318.98 49.87 318.98C65.55 318.98 143.96 318.98 285.09 318.98C241.46 365.81 217.22 391.82 212.37 397.02C191.95 418.93 191.95 454.46 212.37 476.37C232.79 498.28 265.89 498.28 286.31 476.37C305.26 456.03 456.85 293.36 475.8 273.03C479.69 268.85 479.69 262.07 475.8 257.89C463.17 244.34 400 176.56 286.31 54.55C250.63 39.94 225.98 39.94 212.37 54.55Z" id="b9Dv4YNrs1"></path></defs><g><g><g><use xlink:href="#b9Dv4YNrs1" opacity="1" fill="#c86142" fill-opacity="1"></use><g><use xlink:href="#b9Dv4YNrs1" opacity="1" fill-opacity="0" stroke="#000000" stroke-width="1" stroke-opacity="0"></use></g></g></g></g></svg>