<?xml version="1.0" encoding="utf-8"?>
<svg id="svg" version="1.1" width="400" height="363.710499490316" viewBox="0, 0, 400,363.710499490316" xmlns="http://www.w3.org/2000/svg">
  <g id="svgg">
    <path id="path0" d="M171.776 0.489 C 171.667 0.605,156.762 0.798,138.655 0.917 C 83.979 1.277,85.599 1.225,81.024 2.779 C 69.521 6.686,59.319 17.600,56.194 29.343 C 54.992 33.859,54.980 33.988,54.735 45.223 L 54.532 54.595 48.285 54.681 C 37.622 54.827,36.656 54.866,33.849 55.270 C 19.617 57.317,6.002 69.066,2.364 82.439 C 2.037 83.640,1.694 84.853,1.602 85.135 C 0.233 89.319,0.240 258.824,1.610 262.817 C 1.707 263.099,2.056 264.313,2.387 265.514 C 6.531 280.578,22.294 292.811,37.762 292.967 C 39.213 292.982,40.400 293.139,40.400 293.317 C 40.400 293.496,43.912 293.618,48.317 293.590 L 56.233 293.540 56.326 328.296 L 56.419 363.052 91.299 328.173 L 126.179 293.295 205.366 293.417 C 248.919 293.484,284.487 293.433,284.407 293.303 C 284.326 293.173,291.016 293.000,299.273 292.918 L 314.286 292.770 318.240 291.414 C 330.012 287.376,340.252 277.432,343.221 267.152 C 343.655 265.651,344.100 264.177,344.209 263.876 C 344.319 263.576,344.468 262.839,344.541 262.238 C 344.614 261.638,344.838 260.360,345.039 259.400 C 345.240 258.439,345.407 256.555,345.410 255.214 C 345.414 253.636,345.531 252.957,345.742 253.290 C 345.936 253.597,345.985 250.833,345.863 246.447 L 345.658 239.090 354.813 239.199 C 359.848 239.259,363.968 239.206,363.968 239.082 C 363.967 238.957,364.827 238.744,365.878 238.607 C 368.534 238.263,369.163 238.156,369.791 237.941 C 370.091 237.838,371.401 237.467,372.702 237.116 C 383.050 234.324,393.977 223.538,397.309 212.829 C 397.823 211.178,398.319 209.587,398.412 209.294 C 399.011 207.405,399.089 204.100,399.610 158.379 C 400.184 108.032,399.488 33.902,398.409 30.560 C 398.314 30.267,397.876 28.881,397.435 27.480 C 394.551 18.317,387.040 9.510,378.245 4.981 C 371.532 1.523,368.174 1.041,349.955 0.920 C 309.254 0.648,171.939 0.317,171.776 0.489 M348.135 25.636 C 367.697 25.853,369.473 26.351,372.885 32.575 C 374.635 35.767,374.508 29.028,374.531 119.563 C 374.553 209.992,374.657 203.724,373.092 206.771 C 371.038 210.770,367.424 213.559,363.963 213.818 C 363.209 213.874,362.451 213.997,362.279 214.092 C 362.106 214.186,358.294 214.294,353.807 214.332 L 345.649 214.400 345.828 160.612 C 345.926 131.029,345.906 107.725,345.783 108.826 C 345.660 109.927,345.450 105.751,345.315 99.545 C 345.018 85.892,345.094 86.621,343.473 81.814 C 339.232 69.239,328.466 58.900,316.652 56.059 C 311.482 54.815,306.242 54.769,159.691 54.657 L 79.345 54.595 79.345 47.476 C 79.345 40.871,79.785 35.625,80.412 34.759 C 80.557 34.559,80.961 33.621,81.310 32.676 C 82.614 29.145,87.107 26.353,92.055 25.998 C 93.372 25.903,103.366 25.744,114.263 25.644 C 125.160 25.544,134.168 25.369,134.281 25.255 C 134.485 25.049,325.902 25.390,348.135 25.636 M301.547 79.847 C 314.932 80.224,319.566 83.035,320.219 91.174 C 320.985 100.724,320.974 246.507,320.206 256.779 C 319.806 262.122,314.962 267.327,309.918 267.833 C 306.206 268.205,293.717 268.279,205.814 268.447 L 115.905 268.619 98.626 285.909 L 81.347 303.200 81.252 285.779 L 81.158 268.359 74.155 268.134 C 70.303 268.010,66.005 268.061,64.604 268.246 C 61.015 268.722,40.507 268.710,40.211 268.233 C 40.077 268.015,39.457 267.956,38.737 268.091 C 38.053 268.219,37.206 268.204,36.854 268.058 C 36.503 267.912,35.801 267.753,35.295 267.703 C 31.065 267.290,26.272 261.499,25.952 256.415 C 25.090 242.738,25.089 104.367,25.951 91.720 C 26.261 87.177,28.706 83.386,32.499 81.569 C 34.839 80.448,41.104 79.443,43.245 79.845 C 43.783 79.946,46.515 79.916,49.318 79.778 C 55.186 79.489,291.122 79.554,301.547 79.847 M62.665 108.495 C 58.463 109.218,53.867 113.729,53.867 117.130 C 53.867 117.568,53.741 117.925,53.588 117.925 C 52.883 117.925,53.773 124.433,54.691 125.998 C 56.175 128.527,58.501 130.949,59.697 131.212 C 60.294 131.343,60.783 131.610,60.783 131.807 C 60.783 132.003,60.920 132.078,61.088 131.974 C 61.256 131.871,63.180 131.920,65.365 132.085 C 74.124 132.744,173.850 132.565,175.618 131.886 C 175.907 131.775,176.966 131.742,177.972 131.811 C 178.977 131.881,179.800 131.815,179.800 131.665 C 179.800 131.515,180.058 131.392,180.373 131.392 C 183.291 131.392,189.567 119.784,187.380 118.432 C 187.215 118.330,187.079 117.961,187.079 117.611 C 187.079 113.558,181.686 109.016,176.342 108.569 C 172.692 108.263,64.421 108.193,62.665 108.495 M77.550 161.359 C 77.383 161.525,74.295 161.607,70.687 161.541 C 67.079 161.474,64.203 161.542,64.296 161.692 C 64.389 161.843,63.908 161.965,63.226 161.965 C 61.547 161.965,57.973 164.315,56.682 166.268 C 52.574 172.482,53.657 179.059,59.568 183.796 L 61.848 185.623 174.054 185.616 L 286.260 185.608 288.739 183.523 C 295.732 177.641,295.629 169.271,288.491 163.426 L 286.263 161.601 241.970 161.601 C 212.804 161.601,197.600 161.477,197.452 161.237 C 197.174 160.787,78.002 160.908,77.550 161.359 M60.793 215.765 C 57.255 217.886,54.231 221.886,54.231 224.444 C 54.231 224.912,54.095 225.296,53.928 225.296 C 53.761 225.296,53.625 226.033,53.625 226.934 C 53.625 227.834,53.740 228.571,53.881 228.571 C 54.023 228.571,54.238 229.197,54.360 229.961 C 54.750 232.398,57.187 235.659,59.958 237.451 L 62.420 239.044 135.396 239.176 C 175.532 239.249,207.389 239.213,206.187 239.097 C 204.986 238.980,209.409 238.854,216.015 238.816 C 234.650 238.710,236.556 238.115,239.666 231.434 C 242.874 224.543,237.680 215.469,230.528 215.469 C 229.652 215.469,228.935 215.346,228.936 215.196 C 228.936 214.875,225.389 214.856,133.222 214.688 L 62.805 214.559 60.793 215.765 " stroke="none" fill-rule="evenodd" style="fill: rgb(200, 97, 66);"/>
    <path id="path1" d="M226.297 0.273 C 236.756 0.327,253.872 0.327,264.331 0.273 C 274.791 0.219,266.233 0.175,245.314 0.175 C 224.395 0.175,215.837 0.219,226.297 0.273 M120.949 0.636 C 123.513 0.699,127.608 0.699,130.048 0.636 C 132.489 0.573,130.391 0.522,125.387 0.522 C 120.382 0.522,118.385 0.573,120.949 0.636 M344.768 0.635 C 346.520 0.702,349.386 0.702,351.137 0.635 C 352.889 0.568,351.456 0.514,347.953 0.514 C 344.449 0.514,343.016 0.568,344.768 0.635 M90.719 0.995 C 91.670 1.070,93.226 1.070,94.177 0.995 C 95.127 0.920,94.349 0.859,92.448 0.859 C 90.546 0.859,89.768 0.920,90.719 0.995 M366.792 0.985 C 367.245 1.072,367.900 1.069,368.248 0.978 C 368.596 0.887,368.226 0.816,367.425 0.820 C 366.624 0.824,366.339 0.898,366.792 0.985 M78.162 2.799 C 77.812 2.890,77.525 3.083,77.525 3.227 C 77.525 3.371,76.362 4.045,74.940 4.724 C 73.518 5.403,72.272 6.174,72.171 6.437 C 72.070 6.700,71.824 6.915,71.624 6.915 C 71.096 6.915,68.355 9.150,68.592 9.387 C 68.703 9.497,69.161 9.261,69.610 8.862 C 71.299 7.365,74.252 5.480,76.749 4.307 C 79.610 2.962,80.283 2.244,78.162 2.799 M375.978 3.234 C 375.978 3.533,377.807 4.480,378.004 4.283 C 378.065 4.222,377.634 3.896,377.047 3.559 C 376.459 3.222,375.978 3.075,375.978 3.234 M379.748 5.278 C 380.048 5.578,380.415 5.823,380.564 5.823 C 380.713 5.823,381.134 6.095,381.500 6.426 C 381.866 6.757,382.166 6.852,382.166 6.638 C 382.166 6.423,381.614 5.906,380.940 5.489 C 379.501 4.600,378.977 4.507,379.748 5.278 M383.258 7.662 C 384.808 8.906,385.694 9.197,384.363 8.025 C 383.670 7.415,382.933 6.919,382.725 6.923 C 382.518 6.928,382.757 7.260,383.258 7.662 M385.805 9.384 C 385.805 9.843,390.133 13.992,390.368 13.757 C 390.555 13.570,386.309 9.099,385.944 9.099 C 385.868 9.099,385.805 9.227,385.805 9.384 M65.763 11.532 C 64.802 12.440,64.113 13.279,64.232 13.398 C 64.351 13.517,65.212 12.849,66.146 11.915 C 68.357 9.705,68.036 9.384,65.763 11.532 M62.205 15.721 C 61.742 16.383,61.257 17.006,61.127 17.106 C 60.639 17.483,58.918 20.458,59.089 20.630 C 59.187 20.728,59.467 20.436,59.710 19.981 C 59.954 19.526,60.458 18.826,60.832 18.426 C 61.205 18.025,61.510 17.577,61.510 17.430 C 61.510 17.283,61.940 16.651,62.466 16.027 C 62.991 15.403,63.336 14.808,63.233 14.704 C 63.130 14.601,62.667 15.059,62.205 15.721 M391.469 15.469 C 392.612 17.398,393.980 19.467,394.242 19.662 C 394.383 19.767,394.915 20.750,395.425 21.846 C 395.936 22.943,396.349 23.594,396.344 23.294 C 396.323 22.072,393.609 17.503,391.498 15.135 C 390.836 14.393,390.836 14.401,391.469 15.469 M58.061 22.539 C 57.930 22.954,57.669 23.294,57.482 23.294 C 57.296 23.294,57.143 23.458,57.143 23.658 C 57.143 23.858,57.280 24.022,57.448 24.022 C 57.805 24.022,58.703 22.185,58.464 21.946 C 58.374 21.856,58.193 22.123,58.061 22.539 M396.974 25.387 C 397.098 25.737,397.296 26.187,397.412 26.388 C 397.528 26.588,397.626 26.861,397.629 26.994 C 397.638 27.399,398.180 27.810,398.180 27.413 C 398.180 26.675,397.373 24.750,397.064 24.750 C 396.890 24.750,396.849 25.036,396.974 25.387 M56.272 26.053 C 55.974 26.830,55.992 27.478,56.303 27.167 C 56.581 26.889,56.857 25.478,56.634 25.478 C 56.556 25.478,56.393 25.737,56.272 26.053 M100.364 26.111 C 101.615 26.182,103.662 26.182,104.914 26.111 C 106.165 26.040,105.141 25.982,102.639 25.982 C 100.136 25.982,99.113 26.040,100.364 26.111 M347.316 26.112 C 348.667 26.182,350.878 26.182,352.229 26.112 C 353.581 26.042,352.475 25.984,349.773 25.984 C 347.070 25.984,345.965 26.042,347.316 26.112 M91.083 26.457 C 91.433 26.548,92.006 26.548,92.357 26.457 C 92.707 26.365,92.420 26.290,91.720 26.290 C 91.019 26.290,90.732 26.365,91.083 26.457 M362.238 26.457 C 362.589 26.548,363.162 26.548,363.512 26.457 C 363.863 26.365,363.576 26.290,362.875 26.290 C 362.175 26.290,361.888 26.365,362.238 26.457 M87.534 27.107 C 86.475 27.600,84.437 29.094,84.804 29.108 C 84.904 29.111,85.792 28.706,86.777 28.206 C 87.762 27.706,88.785 27.298,89.052 27.298 C 89.318 27.298,89.536 27.134,89.536 26.934 C 89.536 26.438,88.840 26.498,87.534 27.107 M365.059 26.934 C 365.059 27.134,365.305 27.298,365.605 27.298 C 365.905 27.298,366.151 27.134,366.151 26.934 C 366.151 26.733,365.905 26.570,365.605 26.570 C 365.305 26.570,365.059 26.733,365.059 26.934 M368.495 28.502 C 369.449 29.087,370.570 30.198,371.318 31.301 C 371.658 31.802,371.945 32.002,371.955 31.747 C 371.980 31.141,368.857 28.019,368.253 28.047 C 367.997 28.059,368.105 28.262,368.495 28.502 M82.652 30.985 C 81.144 32.878,80.871 33.485,81.529 33.485 C 81.729 33.485,81.893 33.340,81.893 33.162 C 81.893 32.984,82.469 32.001,83.173 30.978 C 84.817 28.588,84.557 28.591,82.652 30.985 M398.993 32.393 C 398.993 33.094,399.067 33.380,399.159 33.030 C 399.251 32.680,399.251 32.106,399.159 31.756 C 399.067 31.406,398.993 31.692,398.993 32.393 M373.893 39.672 C 373.893 40.573,373.964 40.942,374.051 40.491 C 374.138 40.041,374.138 39.304,374.051 38.854 C 373.964 38.403,373.893 38.772,373.893 39.672 M53.867 41.332 C 53.867 43.073,54.001 44.000,54.231 43.858 C 54.431 43.734,54.595 42.496,54.595 41.107 C 54.595 39.665,54.439 38.581,54.231 38.581 C 54.021 38.581,53.867 39.740,53.867 41.332 M399.399 41.492 C 399.399 43.194,399.462 43.890,399.539 43.039 C 399.615 42.188,399.615 40.796,399.539 39.945 C 399.462 39.095,399.399 39.791,399.399 41.492 M79.861 47.498 C 79.861 51.301,79.915 52.808,79.980 50.846 C 80.046 48.883,80.046 45.771,79.980 43.930 C 79.914 42.089,79.860 43.694,79.861 47.498 M374.320 60.965 C 374.319 66.970,374.369 69.478,374.430 66.538 C 374.491 63.597,374.492 58.684,374.431 55.618 C 374.370 52.553,374.320 54.959,374.320 60.965 M38.677 54.492 C 39.230 54.576,40.049 54.574,40.496 54.487 C 40.944 54.401,40.491 54.332,39.490 54.335 C 38.490 54.338,38.123 54.409,38.677 54.492 M262.875 54.504 C 267.229 54.562,274.354 54.562,278.708 54.504 C 283.062 54.446,279.500 54.398,270.792 54.398 C 262.084 54.398,258.521 54.446,262.875 54.504 M307.817 54.858 C 308.463 54.938,309.610 54.939,310.365 54.861 C 311.120 54.782,310.591 54.716,309.190 54.715 C 307.789 54.713,307.171 54.777,307.817 54.858 M25.933 56.292 C 25.682 56.393,25.478 56.646,25.478 56.854 C 25.478 57.102,25.646 57.093,25.966 56.827 C 26.235 56.604,26.546 56.513,26.658 56.624 C 26.769 56.736,26.969 56.653,27.101 56.439 C 27.347 56.041,26.743 55.965,25.933 56.292 M399.789 63.876 C 399.789 67.880,399.842 69.567,399.907 67.626 C 399.972 65.685,399.973 62.409,399.908 60.347 C 399.843 58.284,399.789 59.873,399.789 63.876 M22.566 58.053 C 22.066 58.339,21.820 58.573,22.020 58.573 C 22.220 58.573,22.793 58.339,23.294 58.053 C 23.794 57.767,24.040 57.533,23.840 57.533 C 23.640 57.533,23.066 57.767,22.566 58.053 M324.118 58.605 C 325.316 59.208,326.691 59.983,327.174 60.325 C 327.840 60.798,328.009 60.825,327.879 60.434 C 327.693 59.877,323.365 57.541,322.480 57.520 C 322.183 57.513,322.920 58.001,324.118 58.605 M19.017 59.754 C 18.367 60.156,17.834 60.634,17.834 60.816 C 17.834 60.998,17.653 61.146,17.432 61.146 C 16.850 61.146,14.195 63.318,14.195 63.793 C 14.195 64.014,14.645 63.767,15.196 63.245 C 16.383 62.119,19.952 59.691,20.419 59.691 C 20.599 59.691,20.746 59.527,20.746 59.327 C 20.746 58.820,20.384 58.909,19.017 59.754 M328.298 60.674 C 328.298 61.048,330.846 63.088,331.053 62.881 C 331.139 62.794,330.555 62.198,329.754 61.554 C 328.954 60.911,328.298 60.515,328.298 60.674 M331.940 63.603 C 331.944 64.042,335.918 67.843,336.140 67.621 C 336.326 67.435,332.457 63.330,332.096 63.330 C 332.009 63.330,331.939 63.453,331.940 63.603 M11.469 65.874 C 10.895 66.473,10.507 67.044,10.606 67.143 C 10.706 67.242,11.340 66.752,12.016 66.055 C 12.692 65.357,13.080 64.786,12.878 64.786 C 12.676 64.786,12.042 65.276,11.469 65.874 M8.656 69.063 C 7.726 70.129,6.990 71.737,7.871 70.777 C 9.496 69.007,9.917 68.426,9.576 68.426 C 9.376 68.426,8.962 68.712,8.656 69.063 M336.890 68.790 C 337.427 69.841,338.629 71.338,338.936 71.338 C 339.260 71.338,339.117 71.129,337.559 69.336 C 337.038 68.735,336.737 68.490,336.890 68.790 M6.712 71.980 C 6.205 72.332,5.096 73.963,5.096 74.356 C 5.096 74.526,5.341 74.420,5.641 74.119 C 5.942 73.819,6.187 73.398,6.187 73.183 C 6.187 72.969,6.334 72.793,6.512 72.793 C 6.691 72.793,6.932 72.548,7.047 72.247 C 7.284 71.630,7.252 71.605,6.712 71.980 M339.086 72.247 C 339.201 72.548,339.442 72.793,339.620 72.793 C 339.799 72.793,339.945 72.969,339.945 73.183 C 339.945 73.398,340.191 73.819,340.491 74.119 C 341.262 74.890,341.169 74.366,340.280 72.927 C 339.519 71.696,338.694 71.227,339.086 72.247 M4.173 76.094 C 3.855 76.708,3.646 77.356,3.709 77.533 C 3.771 77.710,4.096 77.208,4.432 76.416 C 5.155 74.710,4.993 74.508,4.173 76.094 M341.426 75.779 C 341.412 75.920,341.591 76.452,341.824 76.962 C 342.244 77.885,342.857 78.219,342.857 77.525 C 342.857 77.325,342.718 77.161,342.549 77.161 C 342.379 77.161,342.063 76.793,341.845 76.342 C 341.628 75.892,341.439 75.638,341.426 75.779 M342.493 78.536 C 342.493 78.692,342.719 79.142,342.996 79.537 C 343.273 79.932,343.505 80.391,343.512 80.558 C 343.531 81.007,343.949 81.349,343.949 80.916 C 343.949 80.165,343.140 78.253,342.822 78.253 C 342.641 78.253,342.493 78.380,342.493 78.536 M2.405 79.557 C 2.007 80.594,2.196 80.997,2.741 80.276 C 3.035 79.888,3.276 79.437,3.276 79.275 C 3.276 78.754,2.633 78.962,2.405 79.557 M68.178 79.982 C 72.746 80.039,80.116 80.039,84.556 79.981 C 88.997 79.924,85.259 79.876,76.251 79.876 C 67.243 79.876,63.610 79.924,68.178 79.982 M257.598 79.981 C 262.452 80.039,270.396 80.039,275.250 79.981 C 280.105 79.924,276.133 79.877,266.424 79.877 C 256.715 79.877,252.743 79.924,257.598 79.981 M40.491 80.333 C 41.042 80.417,41.943 80.417,42.493 80.333 C 43.044 80.250,42.593 80.182,41.492 80.182 C 40.391 80.182,39.941 80.250,40.491 80.333 M303.086 80.335 C 303.732 80.416,304.878 80.417,305.633 80.338 C 306.389 80.260,305.860 80.194,304.459 80.192 C 303.057 80.191,302.439 80.255,303.086 80.335 M35.305 80.801 C 35.305 81.001,35.551 81.165,35.851 81.165 C 36.151 81.165,36.397 81.001,36.397 80.801 C 36.397 80.601,36.151 80.437,35.851 80.437 C 35.551 80.437,35.305 80.601,35.305 80.801 M310.100 80.801 C 310.100 81.001,310.346 81.165,310.646 81.165 C 310.946 81.165,311.192 81.001,311.192 80.801 C 311.192 80.601,310.946 80.437,310.646 80.437 C 310.346 80.437,310.100 80.601,310.100 80.801 M312.648 81.457 C 312.648 81.633,313.098 82.002,313.649 82.277 C 315.180 83.045,315.447 83.087,314.650 82.435 C 313.561 81.544,312.648 81.098,312.648 81.457 M344.375 82.985 C 344.393 83.930,344.966 85.484,344.979 84.622 C 344.985 84.222,344.849 83.567,344.677 83.167 C 344.485 82.721,344.368 82.650,344.375 82.985 M316.898 84.986 C 317.662 86.187,318.389 87.252,318.512 87.352 C 318.636 87.452,318.856 87.915,319.001 88.380 C 319.147 88.846,319.346 89.146,319.445 89.048 C 319.805 88.688,318.181 85.676,316.863 84.258 L 315.510 82.803 316.898 84.986 M28.736 85.012 C 28.106 85.927,27.667 86.751,27.759 86.843 C 27.851 86.935,28.195 86.596,28.522 86.090 C 28.850 85.583,29.382 84.759,29.705 84.258 C 30.745 82.649,29.921 83.290,28.736 85.012 M0.827 87.352 C 0.827 88.253,0.898 88.621,0.985 88.171 C 1.072 87.721,1.072 86.984,0.985 86.533 C 0.898 86.083,0.827 86.451,0.827 87.352 M26.934 87.686 C 26.934 87.870,26.820 88.321,26.681 88.687 C 26.444 89.312,26.467 89.315,27.045 88.743 C 27.729 88.065,27.859 87.352,27.298 87.352 C 27.097 87.352,26.934 87.503,26.934 87.686 M345.405 94.268 C 345.405 95.723,345.561 96.815,345.769 96.815 C 345.977 96.815,346.133 95.723,346.133 94.268 C 346.133 92.812,345.977 91.720,345.769 91.720 C 345.561 91.720,345.405 92.812,345.405 94.268 M320.054 98.999 C 320.054 100.701,320.117 101.397,320.194 100.546 C 320.270 99.695,320.270 98.303,320.194 97.452 C 320.117 96.601,320.054 97.298,320.054 98.999 M25.978 101.365 C 25.979 103.567,26.039 104.421,26.111 103.262 C 26.183 102.104,26.183 100.302,26.110 99.259 C 26.036 98.215,25.977 99.163,25.978 101.365 M0.512 105.187 C 0.512 108.490,0.567 109.841,0.635 108.189 C 0.702 106.538,0.702 103.835,0.635 102.184 C 0.567 100.532,0.512 101.884,0.512 105.187 M65.514 107.734 C 65.514 107.937,66.485 108.098,67.698 108.098 C 68.911 108.098,69.882 107.937,69.882 107.734 C 69.882 107.532,68.911 107.370,67.698 107.370 C 66.485 107.370,65.514 107.532,65.514 107.734 M138.308 107.734 C 138.308 107.969,142.311 108.098,149.591 108.098 C 156.870 108.098,160.874 107.969,160.874 107.734 C 160.874 107.499,156.870 107.370,149.591 107.370 C 142.311 107.370,138.308 107.499,138.308 107.734 M174.795 108.359 C 175.346 108.442,176.247 108.442,176.797 108.359 C 177.348 108.276,176.897 108.207,175.796 108.207 C 174.695 108.207,174.245 108.276,174.795 108.359 M57.298 110.092 C 56.682 110.558,56.672 110.624,57.212 110.634 C 57.551 110.641,57.936 110.471,58.068 110.258 C 58.464 109.616,58.046 109.526,57.298 110.092 M182.348 109.863 C 182.348 110.150,184.823 112.466,185.131 112.466 C 185.222 112.466,184.870 111.907,184.349 111.224 C 183.429 110.018,182.348 109.282,182.348 109.863 M55.080 112.739 C 54.737 113.289,54.304 113.944,54.117 114.195 C 53.931 114.445,53.921 114.648,54.096 114.647 C 54.270 114.645,54.768 113.990,55.202 113.191 C 56.100 111.536,56.018 111.233,55.080 112.739 M185.623 113.362 C 185.623 113.824,186.510 115.378,186.774 115.378 C 187.338 115.378,187.086 114.454,186.351 113.824 C 185.951 113.481,185.623 113.274,185.623 113.362 M52.775 120.837 C 52.775 122.238,52.911 123.385,53.076 123.385 C 53.242 123.385,53.364 122.239,53.349 120.838 C 53.334 119.437,53.198 118.291,53.048 118.290 C 52.898 118.290,52.775 119.436,52.775 120.837 M187.906 120.473 C 187.906 121.374,187.977 121.742,188.064 121.292 C 188.151 120.842,188.151 120.105,188.064 119.654 C 187.977 119.204,187.906 119.572,187.906 120.473 M53.139 124.479 C 53.139 124.956,53.860 126.396,54.231 126.661 C 54.371 126.761,54.932 127.554,55.477 128.424 C 56.022 129.294,56.549 129.924,56.648 129.824 C 56.748 129.725,56.244 128.830,55.530 127.836 C 54.816 126.841,54.231 125.843,54.231 125.616 C 54.231 125.390,54.058 125.205,53.846 125.205 C 53.634 125.205,53.554 125.052,53.670 124.866 C 53.785 124.680,53.713 124.424,53.509 124.298 C 53.306 124.173,53.139 124.254,53.139 124.479 M186.897 124.841 C 187.021 125.041,186.969 125.205,186.781 125.205 C 186.593 125.205,186.246 125.673,186.009 126.245 C 185.772 126.817,185.002 127.896,184.298 128.642 C 183.594 129.389,183.108 130.091,183.220 130.202 C 183.545 130.528,184.477 129.586,185.330 128.069 C 185.765 127.294,186.229 126.661,186.360 126.661 C 186.575 126.661,187.443 125.043,187.443 124.642 C 187.443 124.551,187.270 124.477,187.058 124.477 C 186.846 124.477,186.773 124.641,186.897 124.841 M181.529 130.970 C 180.580 131.543,180.209 132.127,180.801 132.115 C 181.179 132.107,181.712 131.689,182.301 130.937 C 182.895 130.181,182.834 130.183,181.529 130.970 M60.965 132.120 C 60.841 132.320,61.086 132.484,61.510 132.484 C 61.934 132.484,62.180 132.320,62.056 132.120 C 61.933 131.920,61.687 131.756,61.510 131.756 C 61.334 131.756,61.088 131.920,60.965 132.120 M178.162 132.120 C 178.038 132.320,178.274 132.484,178.686 132.484 C 179.099 132.484,179.436 132.320,179.436 132.120 C 179.436 131.920,179.200 131.756,178.911 131.756 C 178.623 131.756,178.286 131.920,178.162 132.120 M63.846 132.533 C 63.739 132.706,64.152 132.848,64.765 132.848 C 65.377 132.848,65.878 132.785,65.878 132.708 C 65.878 132.400,64.027 132.240,63.846 132.533 M169.791 132.484 L 166.879 132.715 170.267 132.781 C 172.449 132.824,173.575 132.718,173.430 132.484 C 173.307 132.284,173.092 132.150,172.954 132.187 C 172.816 132.224,171.392 132.357,169.791 132.484 M86.196 133.121 C 94.068 133.176,106.844 133.176,114.586 133.121 C 122.328 133.066,115.887 133.021,100.273 133.021 C 84.659 133.021,78.324 133.066,86.196 133.121 M345.769 177.252 C 345.769 201.517,345.893 214.013,346.133 214.013 C 346.373 214.013,346.497 201.517,346.497 177.252 C 346.497 152.988,346.373 140.491,346.133 140.491 C 345.893 140.491,345.769 152.988,345.769 177.252 M89.536 160.874 C 89.536 161.113,99.060 161.237,117.379 161.237 C 135.699 161.237,145.223 161.113,145.223 160.874 C 145.223 160.634,135.699 160.510,117.379 160.510 C 99.060 160.510,89.536 160.634,89.536 160.874 M65.150 161.237 C 65.150 161.438,65.796 161.601,66.585 161.601 C 67.373 161.601,68.120 161.438,68.244 161.237 C 68.381 161.015,67.823 160.874,66.809 160.874 C 65.897 160.874,65.150 161.037,65.150 161.237 M286.078 161.168 C 286.078 161.364,286.338 161.623,286.655 161.745 C 287.009 161.881,287.175 161.799,287.087 161.533 C 286.905 160.989,286.078 160.690,286.078 161.168 M61.874 161.601 C 61.874 161.802,62.120 161.965,62.420 161.965 C 62.721 161.965,62.966 161.802,62.966 161.601 C 62.966 161.401,62.721 161.237,62.420 161.237 C 62.120 161.237,61.874 161.401,61.874 161.601 M59.503 162.638 C 57.887 163.623,56.121 165.498,55.309 167.089 C 54.435 168.801,54.383 169.505,55.247 167.927 C 56.345 165.922,58.010 164.069,59.671 163.003 C 61.435 161.872,61.287 161.550,59.503 162.638 M289.398 163.749 C 290.275 164.530,291.074 165.088,291.174 164.989 C 291.388 164.777,288.591 162.343,288.124 162.335 C 287.948 162.332,288.522 162.968,289.398 163.749 M292.373 167.199 C 292.815 167.876,293.229 168.382,293.293 168.325 C 293.516 168.128,292.247 165.969,291.909 165.969 C 291.723 165.969,291.932 166.523,292.373 167.199 M374.320 178.890 C 374.319 184.895,374.369 187.403,374.430 184.463 C 374.491 181.523,374.492 176.609,374.431 173.544 C 374.370 170.479,374.320 172.884,374.320 178.890 M399.789 175.978 C 399.789 179.982,399.842 181.669,399.907 179.728 C 399.972 177.787,399.973 174.511,399.908 172.449 C 399.843 170.386,399.789 171.975,399.789 175.978 M53.867 169.791 C 53.867 170.091,54.031 170.337,54.231 170.337 C 54.431 170.337,54.595 170.091,54.595 169.791 C 54.595 169.490,54.431 169.245,54.231 169.245 C 54.031 169.245,53.867 169.490,53.867 169.791 M0.127 173.976 C 0.127 175.678,0.190 176.374,0.266 175.523 C 0.343 174.672,0.343 173.280,0.266 172.429 C 0.190 171.579,0.127 172.275,0.127 173.976 M53.503 171.793 C 53.503 172.193,53.667 172.520,53.867 172.520 C 54.067 172.520,54.231 172.193,54.231 171.793 C 54.231 171.392,54.067 171.065,53.867 171.065 C 53.667 171.065,53.503 171.392,53.503 171.793 M294.202 173.612 C 294.202 174.914,294.268 175.446,294.349 174.795 C 294.430 174.145,294.430 173.080,294.349 172.429 C 294.268 171.779,294.202 172.311,294.202 173.612 M53.503 175.432 C 53.503 175.833,53.667 176.160,53.867 176.160 C 54.067 176.160,54.231 175.833,54.231 175.432 C 54.231 175.032,54.067 174.704,53.867 174.704 C 53.667 174.704,53.503 175.032,53.503 175.432 M54.595 178.483 C 54.595 178.874,55.678 180.892,55.888 180.892 C 55.988 180.892,55.799 180.359,55.468 179.709 C 54.792 178.380,54.595 178.103,54.595 178.483 M292.115 180.244 C 291.532 181.056,291.284 181.643,291.566 181.550 C 292.087 181.376,293.555 179.148,293.310 178.903 C 293.236 178.829,292.698 179.433,292.115 180.244 M56.380 181.919 C 56.576 182.284,57.407 183.048,58.229 183.617 C 59.050 184.186,59.866 184.910,60.043 185.226 C 60.220 185.541,60.499 185.664,60.664 185.500 C 60.828 185.335,60.488 184.854,59.907 184.431 C 59.326 184.008,58.359 183.120,57.757 182.459 C 56.568 181.153,55.811 180.856,56.380 181.919 M288.575 184.155 C 288.103 184.549,287.895 184.877,288.115 184.883 C 288.334 184.890,288.810 184.568,289.172 184.167 C 290.015 183.236,289.687 183.229,288.575 184.155 M287.003 185.235 C 286.834 185.509,253.512 185.623,174.137 185.623 C 99.295 185.623,61.510 185.745,61.510 185.987 C 61.510 186.663,286.616 186.472,287.177 185.796 C 287.431 185.491,287.549 185.153,287.440 185.044 C 287.332 184.936,287.135 185.022,287.003 185.235 M399.397 198.180 C 399.398 199.782,399.462 200.391,399.539 199.535 C 399.616 198.679,399.615 197.369,399.537 196.624 C 399.458 195.878,399.396 196.579,399.397 198.180 M373.886 200.364 C 373.890 201.165,373.965 201.449,374.052 200.997 C 374.139 200.544,374.136 199.889,374.044 199.541 C 373.953 199.193,373.882 199.563,373.886 200.364 M398.993 207.461 C 398.993 208.162,399.067 208.449,399.159 208.098 C 399.251 207.748,399.251 207.175,399.159 206.824 C 399.067 206.474,398.993 206.761,398.993 207.461 M371.470 207.994 C 370.788 209.036,370.745 209.281,371.247 209.281 C 371.447 209.281,371.611 209.035,371.611 208.735 C 371.611 208.435,371.757 208.189,371.936 208.189 C 372.114 208.189,372.355 207.944,372.470 207.643 C 372.805 206.770,372.113 207.013,371.470 207.994 M368.192 211.281 C 367.814 211.568,367.322 211.868,367.100 211.948 C 366.879 212.028,366.805 212.210,366.936 212.352 C 367.238 212.678,369.427 211.570,369.427 211.092 C 369.427 210.601,369.005 210.666,368.192 211.281 M359.149 213.906 C 359.602 213.993,360.257 213.990,360.605 213.899 C 360.953 213.808,360.582 213.737,359.782 213.741 C 358.981 213.745,358.696 213.819,359.149 213.906 M60.796 214.682 C 59.522 215.366,58.768 216.388,59.842 215.976 C 60.159 215.854,60.419 215.599,60.419 215.408 C 60.419 215.218,60.546 215.140,60.702 215.237 C 60.857 215.333,61.390 215.101,61.885 214.720 C 63.036 213.836,62.415 213.814,60.796 214.682 M141.583 214.400 C 156.737 214.553,167.751 214.526,167.953 214.337 C 168.155 214.147,157.394 214.039,141.929 214.076 L 115.560 214.138 141.583 214.400 M222.202 214.757 C 224.822 215.165,226.388 215.159,226.388 214.741 C 226.388 214.524,225.176 214.396,223.385 214.425 C 220.556 214.471,220.488 214.490,222.202 214.757 M231.483 215.105 C 231.483 215.305,231.811 215.469,232.211 215.469 C 232.611 215.469,232.939 215.305,232.939 215.105 C 232.939 214.904,232.611 214.741,232.211 214.741 C 231.811 214.741,231.483 214.904,231.483 215.105 M233.676 215.378 C 233.681 215.528,234.284 215.949,235.016 216.314 C 236.305 216.956,236.331 216.956,235.826 216.314 C 234.947 215.195,233.651 214.631,233.676 215.378 M396.082 216.628 C 395.842 217.265,395.709 217.850,395.787 217.929 C 395.866 218.007,396.038 217.731,396.170 217.316 C 396.301 216.900,396.562 216.561,396.749 216.561 C 396.936 216.561,397.088 216.315,397.088 216.015 C 397.088 215.080,396.540 215.414,396.082 216.628 M55.267 219.974 C 54.818 220.899,54.319 221.656,54.159 221.656 C 53.998 221.656,53.867 221.902,53.867 222.202 C 53.867 222.502,53.990 222.738,54.140 222.725 C 54.493 222.696,56.483 218.691,56.256 218.464 C 56.162 218.370,55.717 219.049,55.267 219.974 M238.052 218.562 C 238.043 219.103,238.692 220.028,238.921 219.799 C 239.030 219.690,238.880 219.285,238.588 218.900 C 238.297 218.514,238.055 218.362,238.052 218.562 M239.138 220.250 C 239.132 220.377,239.371 220.950,239.670 221.523 C 239.969 222.097,240.215 222.311,240.216 221.999 C 240.218 221.465,239.163 219.753,239.138 220.250 M393.533 221.292 C 393.281 221.695,393.236 222.020,393.433 222.020 C 393.628 222.020,393.962 221.692,394.177 221.292 C 394.391 220.892,394.436 220.564,394.277 220.564 C 394.118 220.564,393.783 220.892,393.533 221.292 M392.348 223.129 C 391.980 223.816,392.007 223.837,392.699 223.405 C 393.487 222.913,393.693 222.384,393.097 222.384 C 392.904 222.384,392.567 222.719,392.348 223.129 M53.503 223.658 C 53.503 223.958,53.667 224.204,53.867 224.204 C 54.067 224.204,54.231 223.958,54.231 223.658 C 54.231 223.358,54.067 223.112,53.867 223.112 C 53.667 223.112,53.503 223.358,53.503 223.658 M240.582 224.386 C 240.582 224.686,240.746 224.932,240.946 224.932 C 241.146 224.932,241.310 224.686,241.310 224.386 C 241.310 224.086,241.146 223.840,240.946 223.840 C 240.746 223.840,240.582 224.086,240.582 224.386 M390.467 225.205 C 389.540 226.284,389.353 226.764,389.950 226.535 C 390.586 226.291,391.794 224.568,391.330 224.568 C 391.156 224.568,390.767 224.854,390.467 225.205 M53.139 226.934 C 53.139 227.234,53.303 227.480,53.503 227.480 C 53.703 227.480,53.867 227.234,53.867 226.934 C 53.867 226.633,53.703 226.388,53.503 226.388 C 53.303 226.388,53.139 226.633,53.139 226.934 M240.776 229.042 C 240.620 229.401,240.595 229.797,240.719 229.922 C 241.089 230.291,241.387 229.772,241.217 229.055 C 241.066 228.419,241.046 228.418,240.776 229.042 M53.503 230.209 C 53.503 230.510,53.667 230.755,53.867 230.755 C 54.067 230.755,54.231 230.510,54.231 230.209 C 54.231 229.909,54.067 229.663,53.867 229.663 C 53.667 229.663,53.503 229.909,53.503 230.209 M385.259 230.585 C 384.659 231.077,384.308 231.480,384.479 231.481 C 384.650 231.482,385.277 231.074,385.872 230.573 C 386.466 230.073,386.818 229.669,386.652 229.676 C 386.487 229.684,385.860 230.092,385.259 230.585 M239.854 231.796 C 239.854 231.969,239.437 232.725,238.927 233.477 C 237.854 235.057,237.959 235.676,239.039 234.143 C 239.802 233.061,240.408 231.483,240.061 231.483 C 239.947 231.483,239.854 231.624,239.854 231.796 M383.136 232.090 C 382.788 232.438,382.837 232.939,383.219 232.939 C 383.397 232.939,383.638 232.693,383.753 232.393 C 383.966 231.838,383.578 231.648,383.136 232.090 M54.596 232.423 C 54.598 232.872,55.983 235.123,56.257 235.123 C 56.377 235.123,56.105 234.509,55.653 233.758 C 54.634 232.063,54.595 232.013,54.596 232.423 M378.253 235.203 C 377.803 235.420,377.434 235.737,377.434 235.906 C 377.434 236.392,377.766 236.273,378.610 235.487 C 379.484 234.673,379.434 234.633,378.253 235.203 M56.483 235.874 C 56.571 236.136,56.857 236.423,57.120 236.510 C 57.393 236.601,57.530 236.465,57.439 236.192 C 57.351 235.929,57.064 235.643,56.802 235.555 C 56.529 235.464,56.392 235.601,56.483 235.874 M0.512 242.766 C 0.512 246.069,0.567 247.420,0.635 245.769 C 0.702 244.117,0.702 241.415,0.635 239.763 C 0.567 238.112,0.512 239.463,0.512 242.766 M58.396 237.273 C 58.675 237.725,60.782 238.885,60.974 238.692 C 61.042 238.624,60.434 238.187,59.622 237.720 C 58.811 237.253,58.259 237.052,58.396 237.273 M234.765 237.691 C 234.067 238.080,233.762 238.399,234.087 238.399 C 234.412 238.399,235.065 238.076,235.537 237.683 C 236.616 236.784,236.387 236.787,234.765 237.691 M372.520 237.671 C 372.062 237.868,371.994 237.983,372.338 237.983 C 372.639 237.983,373.212 237.843,373.612 237.671 C 374.071 237.473,374.138 237.358,373.794 237.358 C 373.494 237.358,372.921 237.499,372.520 237.671 M221.656 239.126 C 221.656 239.332,222.687 239.490,224.022 239.490 C 225.356 239.490,226.388 239.332,226.388 239.126 C 226.388 238.921,225.356 238.763,224.022 238.763 C 222.687 238.763,221.656 238.921,221.656 239.126 M365.423 239.126 C 365.423 239.327,365.751 239.490,366.151 239.490 C 366.551 239.490,366.879 239.327,366.879 239.126 C 366.879 238.926,366.551 238.763,366.151 238.763 C 365.751 238.763,365.423 238.926,365.423 239.126 M149.227 239.490 C 146.524 239.608,153.935 239.738,165.696 239.780 C 179.759 239.829,187.079 239.730,187.079 239.490 C 187.079 239.100,158.176 239.100,149.227 239.490 M361.056 239.490 C 361.056 239.691,361.547 239.854,362.147 239.854 C 362.748 239.854,363.239 239.691,363.239 239.490 C 363.239 239.290,362.748 239.126,362.147 239.126 C 361.547 239.126,361.056 239.290,361.056 239.490 M345.769 244.768 C 345.769 248.044,345.907 250.045,346.133 250.045 C 346.359 250.045,346.497 248.044,346.497 244.768 C 346.497 241.492,346.359 239.490,346.133 239.490 C 345.907 239.490,345.769 241.492,345.769 244.768 M25.973 247.862 C 25.973 249.763,26.034 250.541,26.109 249.591 C 26.184 248.640,26.184 247.084,26.109 246.133 C 26.034 245.182,25.973 245.960,25.973 247.862 M320.052 249.136 C 320.053 250.737,320.117 251.347,320.194 250.491 C 320.271 249.635,320.270 248.324,320.192 247.579 C 320.114 246.834,320.051 247.534,320.052 249.136 M345.405 257.143 C 345.405 257.643,345.569 258.053,345.769 258.053 C 345.969 258.053,346.133 257.643,346.133 257.143 C 346.133 256.642,345.969 256.233,345.769 256.233 C 345.569 256.233,345.405 256.642,345.405 257.143 M0.827 260.601 C 0.827 261.501,0.898 261.870,0.985 261.419 C 1.072 260.969,1.072 260.232,0.985 259.782 C 0.898 259.331,0.827 259.700,0.827 260.601 M27.749 261.392 C 28.918 263.412,31.219 265.900,31.582 265.537 C 31.718 265.400,31.237 264.766,30.512 264.127 C 29.787 263.489,28.896 262.434,28.531 261.783 C 28.167 261.133,27.739 260.601,27.580 260.601 C 27.421 260.601,27.497 260.957,27.749 261.392 M317.723 261.601 C 317.447 262.152,317.161 262.725,317.088 262.875 C 317.015 263.025,317.132 263.148,317.349 263.148 C 317.566 263.148,317.743 262.973,317.743 262.758 C 317.743 262.544,317.989 262.123,318.289 261.822 C 318.888 261.224,319.010 260.601,318.530 260.601 C 318.362 260.601,317.998 261.051,317.723 261.601 M314.109 265.315 C 313.612 265.698,313.306 266.111,313.429 266.234 C 313.552 266.358,313.912 266.199,314.229 265.882 C 314.546 265.565,314.930 265.324,315.083 265.346 C 315.235 265.369,315.418 265.211,315.490 264.995 C 315.686 264.407,315.122 264.537,314.109 265.315 M73.976 267.786 C 75.328 267.856,77.539 267.856,78.890 267.786 C 80.241 267.716,79.136 267.658,76.433 267.658 C 73.731 267.658,72.625 267.716,73.976 267.786 M301.266 267.779 C 301.912 267.859,303.058 267.860,303.814 267.782 C 304.569 267.703,304.040 267.637,302.639 267.635 C 301.237 267.634,300.620 267.698,301.266 267.779 M46.694 268.150 C 48.053 268.220,50.183 268.220,51.426 268.149 C 52.668 268.078,51.556 268.021,48.954 268.021 C 46.351 268.022,45.334 268.080,46.694 268.150 M154.020 268.153 C 175.173 268.205,209.896 268.205,231.181 268.153 C 252.466 268.101,235.159 268.059,192.721 268.059 C 150.282 268.059,132.867 268.101,154.020 268.153 M2.754 269.063 C 2.895 269.513,3.125 269.964,3.265 270.064 C 3.405 270.164,3.720 270.573,3.965 270.974 C 4.463 271.789,4.416 271.580,3.656 269.609 C 3.094 268.153,2.325 267.687,2.754 269.063 M342.395 269.973 C 342.294 270.323,342.086 270.937,341.932 271.338 C 341.694 271.956,341.770 271.933,342.436 271.191 C 343.238 270.298,343.478 269.336,342.900 269.336 C 342.723 269.336,342.496 269.622,342.395 269.973 M4.732 272.802 C 4.732 273.336,6.001 275.149,6.512 275.345 C 6.941 275.510,6.926 275.410,6.440 274.873 C 6.101 274.499,5.823 274.070,5.823 273.922 C 5.823 273.773,5.578 273.406,5.278 273.105 C 4.977 272.805,4.732 272.669,4.732 272.802 M339.763 275.159 C 339.401 275.560,339.288 275.887,339.512 275.887 C 339.736 275.887,340.095 275.560,340.309 275.159 C 340.524 274.759,340.637 274.431,340.561 274.431 C 340.484 274.431,340.126 274.759,339.763 275.159 M7.334 276.975 C 7.776 277.573,8.203 277.996,8.283 277.916 C 8.506 277.693,7.242 275.887,6.863 275.887 C 6.679 275.887,6.891 276.377,7.334 276.975 M338.475 277.007 C 338.105 277.698,338.135 277.728,338.826 277.358 C 339.603 276.942,339.855 276.251,339.230 276.251 C 339.037 276.251,338.697 276.591,338.475 277.007 M336.543 279.381 C 336.173 279.889,335.939 280.373,336.023 280.457 C 336.107 280.541,336.537 280.120,336.979 279.522 C 337.422 278.924,337.656 278.440,337.500 278.446 C 337.343 278.453,336.913 278.873,336.543 279.381 M9.287 279.666 C 9.630 280.190,10.076 280.619,10.277 280.619 C 10.750 280.619,9.729 279.069,9.123 278.867 C 8.823 278.768,8.881 279.047,9.287 279.666 M10.934 281.171 C 10.959 281.776,13.071 284.047,13.350 283.769 C 13.494 283.624,13.006 282.900,12.266 282.160 C 11.525 281.419,10.926 280.974,10.934 281.171 M332.083 283.834 C 329.322 286.209,328.614 286.769,328.382 286.760 C 328.246 286.756,328.071 286.944,327.992 287.178 C 327.798 287.762,329.100 287.056,330.206 285.979 C 330.664 285.533,331.609 284.735,332.307 284.206 C 333.005 283.676,333.494 283.157,333.394 283.053 C 333.294 282.948,332.704 283.300,332.083 283.834 M15.793 285.880 C 16.571 286.600,17.306 287.092,17.425 286.973 C 17.654 286.744,16.328 285.588,15.105 284.950 C 14.704 284.741,15.014 285.160,15.793 285.880 M18.198 287.452 C 18.198 287.779,20.362 289.132,20.563 288.930 C 20.635 288.858,20.133 288.431,19.446 287.981 C 18.760 287.532,18.198 287.293,18.198 287.452 M324.358 289.068 C 322.891 289.861,321.780 290.600,321.889 290.709 C 322.149 290.970,324.295 290.078,324.295 289.709 C 324.295 289.553,324.745 289.262,325.296 289.061 C 326.373 288.670,327.988 287.535,327.389 287.591 C 327.188 287.610,325.824 288.274,324.358 289.068 M22.566 290.043 C 22.566 290.222,22.825 290.467,23.142 290.589 C 23.924 290.889,24.022 290.871,24.022 290.424 C 24.022 290.212,23.858 290.140,23.658 290.264 C 23.458 290.388,23.294 290.315,23.294 290.103 C 23.294 289.891,23.130 289.718,22.930 289.718 C 22.730 289.718,22.566 289.864,22.566 290.043 M35.305 293.358 C 35.305 293.558,35.632 293.722,36.033 293.722 C 36.433 293.722,36.761 293.558,36.761 293.358 C 36.761 293.157,36.433 292.994,36.033 292.994 C 35.632 292.994,35.305 293.157,35.305 293.358 M302.093 293.358 C 302.093 293.572,303.367 293.722,305.187 293.722 C 307.006 293.722,308.280 293.572,308.280 293.358 C 308.280 293.143,307.006 292.994,305.187 292.994 C 303.367 292.994,302.093 293.143,302.093 293.358 M44.404 293.722 C 44.404 293.949,46.527 294.086,50.045 294.086 C 53.564 294.086,55.687 293.949,55.687 293.722 C 55.687 293.495,53.564 293.358,50.045 293.358 C 46.527 293.358,44.404 293.495,44.404 293.722 M91.166 328.664 C 71.744 348.081,55.990 363.967,56.158 363.967 C 56.325 363.967,72.177 348.244,91.384 329.026 L 126.307 294.086 197.479 294.086 C 244.834 294.086,268.576 293.964,268.426 293.722 C 268.277 293.481,244.189 293.358,197.340 293.359 L 126.479 293.360 91.166 328.664 " stroke="none" fill-rule="evenodd" style="fill: rgb(200, 97, 66);"/>
    <path id="path2" d="M146.588 0.630 C 147.439 0.707,148.831 0.707,149.682 0.630 C 150.532 0.554,149.836 0.491,148.135 0.491 C 146.433 0.491,145.737 0.554,146.588 0.630 M331.490 0.628 C 332.144 0.709,333.127 0.707,333.673 0.624 C 334.220 0.541,333.685 0.475,332.484 0.477 C 331.283 0.479,330.836 0.547,331.490 0.628 M99.090 0.979 C 99.440 1.070,100.014 1.070,100.364 0.979 C 100.714 0.887,100.428 0.812,99.727 0.812 C 99.026 0.812,98.740 0.887,99.090 0.979 M65.996 12.019 C 64.960 13.015,64.229 13.831,64.372 13.831 C 64.515 13.831,65.438 13.012,66.424 12.011 C 68.738 9.661,68.441 9.667,65.996 12.019 M136.397 25.748 C 137.848 25.817,140.223 25.817,141.674 25.748 C 143.126 25.679,141.938 25.622,139.035 25.622 C 136.133 25.622,134.945 25.679,136.397 25.748 M305.641 25.748 C 307.093 25.817,309.468 25.817,310.919 25.748 C 312.370 25.679,311.183 25.622,308.280 25.622 C 305.378 25.622,304.190 25.679,305.641 25.748 M79.444 44.040 C 79.444 44.941,79.515 45.309,79.602 44.859 C 79.688 44.409,79.688 43.672,79.602 43.221 C 79.515 42.771,79.444 43.139,79.444 44.040 M374.639 55.687 C 374.639 56.988,374.705 57.520,374.786 56.870 C 374.866 56.219,374.866 55.155,374.786 54.504 C 374.705 53.854,374.639 54.386,374.639 55.687 M46.663 54.501 C 48.005 54.570,50.298 54.571,51.758 54.502 C 53.218 54.432,52.120 54.375,49.318 54.375 C 46.515 54.374,45.320 54.431,46.663 54.501 M114.741 54.504 C 133.908 54.556,165.273 54.556,184.440 54.504 C 203.608 54.452,187.925 54.409,149.591 54.409 C 111.256 54.409,95.573 54.452,114.741 54.504 M399.735 79.345 C 399.735 80.246,399.806 80.614,399.893 80.164 C 399.980 79.713,399.980 78.976,399.893 78.526 C 399.806 78.076,399.735 78.444,399.735 79.345 M52.502 79.960 C 52.853 80.051,53.426 80.051,53.776 79.960 C 54.126 79.868,53.840 79.793,53.139 79.793 C 52.439 79.793,52.152 79.868,52.502 79.960 M290.537 79.960 C 290.887 80.051,291.460 80.051,291.811 79.960 C 292.161 79.868,291.874 79.793,291.174 79.793 C 290.473 79.793,290.187 79.868,290.537 79.960 M345.670 99.219 C 345.524 99.365,345.420 100.071,345.438 100.789 L 345.471 102.093 345.821 100.876 C 346.190 99.593,346.116 98.773,345.670 99.219 M73.521 107.734 C 73.521 107.934,74.022 108.098,74.635 108.098 C 75.284 108.098,75.654 107.947,75.523 107.734 C 75.399 107.534,74.898 107.370,74.410 107.370 C 73.921 107.370,73.521 107.534,73.521 107.734 M121.019 107.734 C 120.876 107.965,121.865 108.098,123.727 108.098 C 125.440 108.098,126.661 107.947,126.661 107.734 C 126.661 107.524,125.515 107.370,123.952 107.370 C 122.463 107.370,121.143 107.534,121.019 107.734 M0.480 120.837 C 0.480 122.138,0.547 122.671,0.627 122.020 C 0.708 121.369,0.708 120.305,0.627 119.654 C 0.547 119.004,0.480 119.536,0.480 120.837 M320.424 122.839 C 320.425 124.841,320.486 125.613,320.560 124.556 C 320.634 123.498,320.633 121.860,320.558 120.916 C 320.484 119.972,320.423 120.837,320.424 122.839 M25.644 145.223 C 25.644 153.530,25.692 156.929,25.750 152.775 C 25.809 148.621,25.809 141.824,25.750 137.671 C 25.692 133.517,25.644 136.915,25.644 145.223 M166.610 132.378 C 167.063 132.465,167.718 132.461,168.066 132.370 C 168.414 132.279,168.044 132.208,167.243 132.212 C 166.442 132.216,166.158 132.290,166.610 132.378 M86.533 132.757 C 90.587 132.815,97.220 132.815,101.274 132.757 C 105.328 132.698,102.011 132.650,93.904 132.650 C 85.796 132.650,82.480 132.698,86.533 132.757 M161.515 132.741 C 161.967 132.829,162.623 132.825,162.971 132.734 C 163.319 132.643,162.948 132.572,162.147 132.576 C 161.347 132.580,161.062 132.654,161.515 132.741 M399.740 160.328 C 399.743 161.328,399.814 161.695,399.897 161.141 C 399.981 160.588,399.979 159.769,399.892 159.322 C 399.806 158.874,399.737 159.327,399.740 160.328 M70.246 161.237 C 70.246 161.438,70.573 161.601,70.974 161.601 C 71.374 161.601,71.702 161.438,71.702 161.237 C 71.702 161.037,71.374 160.874,70.974 160.874 C 70.573 160.874,70.246 161.037,70.246 161.237 M248.408 161.237 C 248.544 161.458,251.141 161.601,254.981 161.601 C 258.970 161.601,261.328 161.466,261.328 161.237 C 261.328 161.008,258.895 160.874,254.756 160.874 C 250.466 160.874,248.261 161.000,248.408 161.237 M374.642 183.985 C 374.643 185.387,374.709 185.915,374.788 185.160 C 374.867 184.405,374.865 183.259,374.785 182.612 C 374.705 181.966,374.640 182.584,374.642 183.985 M25.644 206.733 C 25.644 215.241,25.692 218.722,25.750 214.468 C 25.809 210.214,25.809 203.253,25.750 198.999 C 25.692 194.745,25.644 198.226,25.644 206.733 M88.519 214.282 C 89.862 214.352,92.155 214.353,93.615 214.283 C 95.075 214.214,93.976 214.157,91.174 214.156 C 88.371 214.156,87.177 214.212,88.519 214.282 M111.123 214.649 C 113.887 214.711,118.309 214.711,120.950 214.649 C 123.590 214.586,121.328 214.536,115.924 214.536 C 110.519 214.536,108.358 214.587,111.123 214.649 M215.651 214.762 C 216.451 214.927,217.598 215.052,218.198 215.038 C 219.017 215.020,218.881 214.941,217.652 214.722 C 215.456 214.331,213.734 214.365,215.651 214.762 M320.422 224.932 C 320.422 226.833,320.484 227.611,320.559 226.661 C 320.634 225.710,320.634 224.154,320.559 223.203 C 320.484 222.252,320.422 223.030,320.422 224.932 M0.480 227.116 C 0.480 228.417,0.547 228.949,0.627 228.298 C 0.708 227.648,0.708 226.583,0.627 225.933 C 0.547 225.282,0.480 225.814,0.480 227.116 M215.651 239.126 C 215.774 239.327,216.275 239.490,216.764 239.490 C 217.253 239.490,217.652 239.327,217.652 239.126 C 217.652 238.926,217.151 238.763,216.539 238.763 C 215.889 238.763,215.519 238.914,215.651 239.126 M99.545 239.490 C 99.398 239.729,101.900 239.854,106.781 239.854 C 111.363 239.854,114.330 239.714,114.468 239.490 C 114.615 239.252,112.113 239.126,107.231 239.126 C 102.650 239.126,99.683 239.267,99.545 239.490 M57.598 268.131 C 57.948 268.222,58.521 268.222,58.872 268.131 C 59.222 268.039,58.935 267.964,58.235 267.964 C 57.534 267.964,57.247 268.039,57.598 268.131 M76.524 268.141 C 77.075 268.224,77.975 268.224,78.526 268.141 C 79.076 268.057,78.626 267.989,77.525 267.989 C 76.424 267.989,75.974 268.057,76.524 268.141 M283.258 268.141 C 283.808 268.224,284.709 268.224,285.259 268.141 C 285.810 268.057,285.359 267.989,284.258 267.989 C 283.157 267.989,282.707 268.057,283.258 268.141 M50.329 268.512 C 51.286 268.587,52.760 268.586,53.605 268.510 C 54.450 268.433,53.667 268.372,51.865 268.373 C 50.064 268.374,49.373 268.437,50.329 268.512 M111.135 272.625 C 106.516 277.319,106.082 277.793,107.146 276.973 C 107.982 276.329,115.742 268.573,115.742 268.381 C 115.742 268.003,115.119 268.577,111.135 272.625 M262.169 268.516 C 264.934 268.578,269.356 268.578,271.996 268.516 C 274.637 268.454,272.375 268.403,266.970 268.403 C 261.565 268.403,259.405 268.454,262.169 268.516 M104.443 279.406 C 103.506 280.388,103.253 280.781,103.843 280.338 C 104.783 279.632,106.507 277.707,106.199 277.707 C 106.126 277.707,105.336 278.472,104.443 279.406 M98.824 284.980 C 98.045 285.777,97.480 286.498,97.567 286.583 C 97.654 286.668,98.351 286.015,99.115 285.134 C 100.847 283.137,100.699 283.059,98.824 284.980 M296.269 293.358 C 296.269 293.558,296.843 293.722,297.543 293.722 C 298.244 293.722,298.817 293.558,298.817 293.358 C 298.817 293.157,298.244 292.994,297.543 292.994 C 296.843 292.994,296.269 293.157,296.269 293.358 " stroke="none" fill-rule="evenodd" style="fill: rgb(200, 97, 66);"/>
    <path id="path3" d="M156.255 0.636 C 159.220 0.698,163.970 0.697,166.810 0.636 C 169.651 0.575,167.225 0.524,161.419 0.525 C 155.614 0.525,153.290 0.575,156.255 0.636 M312.921 0.636 C 316.174 0.697,321.497 0.697,324.750 0.636 C 328.003 0.576,325.341 0.527,318.835 0.527 C 312.329 0.527,309.668 0.576,312.921 0.636 M95.723 1.092 L 90.446 1.304 94.995 1.339 C 97.498 1.357,101.674 1.256,104.277 1.112 L 109.008 0.851 105.005 0.865 C 102.803 0.873,98.626 0.975,95.723 1.092 M122.225 1.000 C 125.490 1.061,130.732 1.061,133.872 1.000 C 137.012 0.940,134.340 0.890,127.934 0.890 C 121.529 0.890,118.959 0.940,122.225 1.000 M342.604 1.000 C 344.767 1.064,348.206 1.064,350.247 0.999 C 352.288 0.934,350.519 0.882,346.315 0.882 C 342.111 0.882,340.441 0.935,342.604 1.000 M359.501 0.991 C 360.147 1.071,361.293 1.072,362.048 0.994 C 362.803 0.915,362.275 0.849,360.874 0.847 C 359.472 0.846,358.854 0.910,359.501 0.991 M84.804 1.456 C 84.084 1.687,84.046 1.747,84.622 1.747 C 85.023 1.747,85.760 1.616,86.260 1.456 C 86.981 1.225,87.019 1.164,86.442 1.164 C 86.042 1.164,85.305 1.296,84.804 1.456 M364.604 1.355 C 365.255 1.436,366.319 1.436,366.970 1.355 C 367.621 1.274,367.088 1.208,365.787 1.208 C 364.486 1.208,363.954 1.274,364.604 1.355 M376.008 3.775 C 376.383 4.110,378.526 5.095,378.526 4.932 C 378.526 4.723,376.508 3.640,376.118 3.640 C 375.974 3.640,375.925 3.701,376.008 3.775 M387.625 11.829 C 388.712 12.930,389.684 13.831,389.784 13.831 C 389.884 13.831,389.076 12.930,387.989 11.829 C 386.902 10.728,385.930 9.827,385.830 9.827 C 385.730 9.827,386.538 10.728,387.625 11.829 M58.399 22.600 C 58.079 23.219,57.882 23.790,57.961 23.869 C 58.040 23.948,58.377 23.442,58.710 22.743 C 59.458 21.174,59.199 21.054,58.399 22.600 M135.578 25.350 C 136.379 25.410,181.993 25.504,236.943 25.559 C 291.893 25.614,330.874 25.559,323.567 25.437 C 310.542 25.218,132.718 25.136,135.578 25.350 M99.272 25.748 C 100.723 25.817,103.098 25.817,104.550 25.748 C 106.001 25.679,104.813 25.622,101.911 25.622 C 99.008 25.622,97.821 25.679,99.272 25.748 M118.948 25.750 C 121.813 25.812,126.399 25.811,129.139 25.750 C 131.880 25.688,129.536 25.638,123.931 25.638 C 118.326 25.638,116.084 25.688,118.948 25.750 M348.044 25.748 C 349.595 25.816,352.134 25.816,353.685 25.748 C 355.237 25.680,353.967 25.624,350.864 25.624 C 347.762 25.624,346.492 25.680,348.044 25.748 M358.417 26.099 C 358.867 26.185,359.604 26.185,360.055 26.099 C 360.505 26.012,360.136 25.941,359.236 25.941 C 358.335 25.941,357.966 26.012,358.417 26.099 M55.566 30.088 C 55.432 30.221,55.337 30.754,55.354 31.271 C 55.385 32.194,55.391 32.192,55.706 31.137 C 56.037 30.030,55.988 29.665,55.566 30.088 M398.648 32.939 C 398.651 33.940,398.722 34.306,398.805 33.753 C 398.889 33.200,398.887 32.381,398.800 31.933 C 398.714 31.485,398.645 31.938,398.648 32.939 M374.064 38.076 C 374.169 39.054,374.315 39.923,374.389 40.006 C 374.679 40.336,374.491 37.275,374.192 36.803 C 373.997 36.494,373.947 36.990,374.064 38.076 M79.516 39.480 C 79.373 41.005,79.338 42.335,79.438 42.435 C 79.538 42.535,79.737 41.369,79.880 39.844 C 80.023 38.318,80.058 36.989,79.958 36.889 C 79.858 36.788,79.659 37.954,79.516 39.480 M399.017 40.764 C 399.017 41.865,399.085 42.316,399.169 41.765 C 399.252 41.215,399.252 40.314,399.169 39.763 C 399.085 39.213,399.017 39.663,399.017 40.764 M374.443 47.862 C 374.541 50.864,374.681 53.389,374.754 53.473 C 375.004 53.759,374.800 44.586,374.533 43.494 C 374.385 42.894,374.345 44.859,374.443 47.862 M399.391 50.409 C 399.393 51.811,399.459 52.339,399.538 51.584 C 399.616 50.829,399.615 49.683,399.535 49.036 C 399.454 48.390,399.390 49.008,399.391 50.409 M38.854 54.858 C 39.504 54.939,40.569 54.939,41.219 54.858 C 41.870 54.778,41.338 54.712,40.036 54.712 C 38.735 54.712,38.203 54.778,38.854 54.858 M257.987 54.868 C 263.256 54.925,271.773 54.925,276.914 54.868 C 282.054 54.811,277.743 54.764,267.334 54.764 C 256.924 54.764,252.718 54.811,257.987 54.868 M296.918 54.864 C 297.976 54.938,299.614 54.937,300.558 54.862 C 301.502 54.787,300.637 54.727,298.635 54.728 C 296.633 54.729,295.861 54.790,296.918 54.864 M31.707 55.289 C 31.397 55.486,31.886 55.542,32.981 55.436 C 35.446 55.196,35.790 55.021,33.849 54.993 C 32.948 54.981,31.984 55.114,31.707 55.289 M306.005 55.227 C 307.056 55.301,308.776 55.301,309.827 55.227 C 310.878 55.154,310.018 55.094,307.916 55.094 C 305.814 55.094,304.955 55.154,306.005 55.227 M313.558 55.323 C 313.958 55.495,314.531 55.636,314.832 55.636 C 315.176 55.636,315.109 55.520,314.650 55.323 C 314.249 55.151,313.676 55.010,313.376 55.010 C 313.032 55.010,313.099 55.126,313.558 55.323 M333.576 65.878 C 334.562 66.879,335.450 67.698,335.550 67.698 C 335.651 67.698,334.926 66.879,333.940 65.878 C 332.954 64.877,332.066 64.058,331.965 64.058 C 331.865 64.058,332.590 64.877,333.576 65.878 M63.603 79.618 C 68.858 79.674,77.457 79.674,82.712 79.618 C 87.966 79.561,83.667 79.514,73.157 79.514 C 62.648 79.514,58.348 79.561,63.603 79.618 M259.054 79.618 C 264.709 79.674,273.963 79.674,279.618 79.618 C 285.273 79.561,280.646 79.515,269.336 79.515 C 258.025 79.515,253.399 79.561,259.054 79.618 M41.037 79.966 C 41.488 80.052,42.225 80.052,42.675 79.966 C 43.126 79.879,42.757 79.808,41.856 79.808 C 40.955 79.808,40.587 79.879,41.037 79.966 M47.589 79.975 C 48.439 80.052,49.832 80.052,50.682 79.975 C 51.533 79.899,50.837 79.836,49.136 79.836 C 47.434 79.836,46.738 79.899,47.589 79.975 M294.007 79.978 C 295.064 80.051,296.702 80.051,297.646 79.976 C 298.591 79.901,297.725 79.841,295.723 79.842 C 293.722 79.843,292.949 79.904,294.007 79.978 M302.912 79.970 C 303.462 80.053,304.363 80.053,304.914 79.970 C 305.464 79.886,305.014 79.818,303.913 79.818 C 302.812 79.818,302.361 79.886,302.912 79.970 M399.791 88.626 C 399.791 93.030,399.844 94.782,399.908 92.518 C 399.972 90.255,399.972 86.652,399.907 84.511 C 399.843 82.370,399.791 84.222,399.791 88.626 M343.620 81.893 C 343.607 81.993,343.828 82.812,344.112 83.712 C 344.396 84.613,344.632 85.023,344.636 84.622 C 344.643 83.988,343.684 81.411,343.620 81.893 M29.276 83.803 L 28.207 84.986 29.480 83.894 C 30.179 83.294,30.821 82.762,30.905 82.712 C 30.989 82.662,30.898 82.621,30.702 82.621 C 30.506 82.621,29.864 83.153,29.276 83.803 M1.211 88.990 C 1.213 90.391,1.279 90.920,1.358 90.165 C 1.436 89.410,1.435 88.263,1.355 87.617 C 1.274 86.971,1.210 87.589,1.211 88.990 M319.636 88.990 C 319.636 89.390,319.767 90.127,319.927 90.628 C 320.158 91.348,320.219 91.386,320.219 90.810 C 320.219 90.409,320.087 89.672,319.927 89.172 C 319.696 88.451,319.636 88.414,319.636 88.990 M25.926 91.356 C 25.926 92.056,26.001 92.343,26.093 91.993 C 26.184 91.642,26.184 91.069,26.093 90.719 C 26.001 90.369,25.926 90.655,25.926 91.356 M0.832 93.358 C 0.835 94.359,0.905 94.725,0.989 94.172 C 1.073 93.618,1.071 92.799,0.984 92.352 C 0.898 91.904,0.829 92.357,0.832 93.358 M320.184 94.995 C 320.299 96.297,320.452 97.429,320.524 97.513 C 320.802 97.834,320.588 94.047,320.289 93.358 C 320.094 92.907,320.054 93.531,320.184 94.995 M25.926 94.268 C 25.926 94.968,26.001 95.255,26.093 94.904 C 26.184 94.554,26.184 93.981,26.093 93.631 C 26.001 93.280,25.926 93.567,25.926 94.268 M25.618 100.455 C 25.618 102.957,25.676 103.981,25.747 102.730 C 25.818 101.479,25.818 99.431,25.747 98.180 C 25.676 96.929,25.618 97.953,25.618 100.455 M0.878 106.096 C 0.879 109.700,0.933 111.125,0.999 109.263 C 1.066 107.401,1.065 104.453,0.999 102.711 C 0.932 100.970,0.878 102.493,0.878 106.096 M345.678 101.501 C 345.528 102.177,345.426 104.552,345.452 106.779 L 345.499 110.828 345.823 108.098 C 346.219 104.753,346.105 99.577,345.678 101.501 M75.523 107.734 C 75.669 107.971,83.648 108.098,98.271 108.098 C 112.894 108.098,120.873 107.971,121.019 107.734 C 121.168 107.493,113.494 107.370,98.271 107.370 C 83.049 107.370,75.374 107.493,75.523 107.734 M320.473 173.976 C 320.473 210.710,320.580 239.864,320.710 238.763 C 321.020 236.148,321.020 111.805,320.710 109.190 C 320.580 108.089,320.473 137.243,320.473 173.976 M168.426 108.362 C 169.076 108.442,170.141 108.442,170.792 108.362 C 171.442 108.281,170.910 108.215,169.609 108.215 C 168.308 108.215,167.775 108.281,168.426 108.362 M175.523 108.713 C 175.874 108.805,176.447 108.805,176.797 108.713 C 177.147 108.622,176.861 108.547,176.160 108.547 C 175.460 108.547,175.173 108.622,175.523 108.713 M58.963 109.587 C 58.358 110.081,58.297 110.205,58.781 109.955 C 59.968 109.341,60.626 108.837,60.237 108.840 C 60.036 108.841,59.463 109.177,58.963 109.587 M179.102 108.957 C 179.186 109.029,179.745 109.198,180.346 109.332 C 181.143 109.510,181.290 109.477,180.892 109.207 C 180.400 108.874,178.737 108.642,179.102 108.957 M25.355 123.476 C 25.062 136.478,25.126 220.833,25.436 230.937 C 25.559 234.941,25.660 210.005,25.660 175.523 C 25.660 141.042,25.645 112.830,25.627 112.830 C 25.610 112.830,25.487 117.621,25.355 123.476 M0.517 130.300 C 0.517 134.404,0.571 136.083,0.635 134.031 C 0.700 131.979,0.700 128.621,0.635 126.570 C 0.571 124.518,0.517 126.197,0.517 130.300 M183.439 129.026 C 182.555 129.927,181.914 130.664,182.014 130.664 C 182.114 130.664,182.919 129.927,183.803 129.026 C 184.688 128.126,185.329 127.389,185.229 127.389 C 185.129 127.389,184.324 128.126,183.439 129.026 M62.602 132.120 C 62.602 132.320,62.971 132.482,63.421 132.479 C 64.084 132.474,64.136 132.405,63.694 132.120 C 62.989 131.664,62.602 131.664,62.602 132.120 M175.250 132.120 C 175.123 132.326,175.421 132.484,175.935 132.484 C 176.436 132.484,176.946 132.320,177.070 132.120 C 177.197 131.915,176.899 131.756,176.385 131.756 C 175.885 131.756,175.374 131.920,175.250 132.120 M66.970 132.484 C 68.355 132.928,69.840 132.928,69.154 132.484 C 68.854 132.290,68.035 132.145,67.334 132.162 C 66.167 132.190,66.136 132.217,66.970 132.484 M150.136 132.484 C 145.149 132.693,145.199 132.698,152.502 132.737 C 156.606 132.758,161.356 132.654,163.057 132.504 C 166.985 132.160,158.211 132.146,150.136 132.484 M399.791 150.864 C 399.791 155.268,399.844 157.020,399.908 154.757 C 399.972 152.494,399.972 148.890,399.907 146.750 C 399.843 144.609,399.791 146.460,399.791 150.864 M71.702 161.237 C 71.702 161.450,72.908 161.601,74.592 161.601 C 76.181 161.601,77.583 161.438,77.707 161.237 C 77.850 161.006,76.801 160.874,74.817 160.874 C 72.983 160.874,71.702 161.023,71.702 161.237 M197.452 161.237 C 197.599 161.475,206.562 161.601,223.155 161.601 C 240.047 161.601,248.557 161.479,248.408 161.237 C 248.261 161.000,239.298 160.874,222.705 160.874 C 205.813 160.874,197.303 160.996,197.452 161.237 M55.551 167.516 C 55.267 167.966,54.938 168.744,54.819 169.245 C 54.683 169.818,54.816 169.683,55.180 168.881 C 55.498 168.180,55.925 167.402,56.131 167.152 C 56.336 166.902,56.406 166.697,56.286 166.697 C 56.166 166.697,55.835 167.066,55.551 167.516 M0.486 173.976 C 0.486 175.478,0.551 176.092,0.629 175.341 C 0.708 174.591,0.708 173.362,0.629 172.611 C 0.551 171.861,0.486 172.475,0.486 173.976 M54.959 178.607 C 54.959 178.818,55.296 179.378,55.709 179.850 L 56.458 180.710 55.819 179.618 C 54.977 178.181,54.959 178.159,54.959 178.607 M374.598 189.263 C 374.554 190.965,374.439 193.503,374.343 194.904 C 374.191 197.137,374.215 197.274,374.539 196.008 C 374.742 195.213,374.856 192.675,374.793 190.366 C 374.693 186.676,374.669 186.543,374.598 189.263 M399.391 189.445 C 399.393 190.846,399.459 191.375,399.538 190.620 C 399.616 189.865,399.615 188.718,399.535 188.072 C 399.454 187.426,399.390 188.044,399.391 189.445 M399.012 198.908 C 399.015 199.909,399.086 200.275,399.169 199.722 C 399.253 199.169,399.251 198.350,399.164 197.902 C 399.078 197.455,399.009 197.907,399.012 198.908 M374.050 202.097 C 373.898 203.450,373.604 205.006,373.397 205.555 C 373.132 206.256,373.135 206.439,373.406 206.171 C 373.896 205.686,374.605 201.908,374.447 200.617 C 374.381 200.077,374.203 200.743,374.050 202.097 M398.648 206.915 C 398.651 207.916,398.722 208.283,398.805 207.729 C 398.889 207.176,398.887 206.357,398.800 205.909 C 398.714 205.462,398.645 205.914,398.648 206.915 M398.351 209.463 C 398.257 209.763,398.100 210.263,398.002 210.574 C 397.905 210.885,397.967 211.051,398.141 210.943 C 398.315 210.836,398.536 210.336,398.632 209.832 C 398.822 208.838,398.626 208.581,398.351 209.463 M0.518 217.470 C 0.518 221.674,0.571 223.344,0.636 221.181 C 0.700 219.018,0.700 215.579,0.635 213.538 C 0.570 211.497,0.518 213.267,0.518 217.470 M364.513 213.480 C 363.072 213.979,363.070 213.982,364.331 213.775 C 365.032 213.659,365.851 213.425,366.151 213.254 C 366.952 212.797,366.178 212.904,364.513 213.480 M361.237 214.013 C 360.536 214.314,360.538 214.326,361.307 214.351 C 361.746 214.365,362.206 214.213,362.329 214.013 C 362.595 213.582,362.239 213.582,361.237 214.013 M62.602 214.319 C 62.602 214.488,72.470 214.627,84.531 214.628 C 103.715 214.629,105.025 214.597,94.995 214.370 C 78.273 213.991,62.602 213.967,62.602 214.319 M348.590 214.283 C 350.041 214.352,352.416 214.352,353.867 214.283 C 355.318 214.214,354.131 214.157,351.228 214.157 C 348.326 214.157,347.138 214.214,348.590 214.283 M201.820 214.753 C 205.492 215.130,217.130 215.101,215.287 214.720 C 214.486 214.554,210.555 214.435,206.551 214.455 C 201.296 214.481,199.981 214.564,201.820 214.753 M228.935 215.105 C 228.935 215.305,229.263 215.469,229.663 215.469 C 230.064 215.469,230.391 215.305,230.391 215.105 C 230.391 214.904,230.064 214.741,229.663 214.741 C 229.263 214.741,228.935 214.904,228.935 215.105 M240.582 226.955 C 240.582 227.726,240.730 228.159,240.946 228.025 C 241.146 227.902,241.310 227.319,241.310 226.730 C 241.310 226.141,241.146 225.660,240.946 225.660 C 240.746 225.660,240.582 226.243,240.582 226.955 M0.879 242.038 C 0.879 245.742,0.933 247.257,0.999 245.405 C 1.065 243.553,1.065 240.523,0.999 238.672 C 0.933 236.820,0.879 238.335,0.879 242.038 M234.267 237.556 C 234.130 237.693,233.324 237.918,232.477 238.056 L 230.937 238.307 232.233 238.353 C 233.226 238.388,235.681 237.370,234.729 237.318 C 234.612 237.312,234.404 237.419,234.267 237.556 M370.883 237.569 C 369.548 237.808,369.210 238.304,370.512 238.113 C 371.121 238.024,371.709 237.806,371.818 237.629 C 371.928 237.452,371.967 237.329,371.905 237.356 C 371.843 237.383,371.383 237.479,370.883 237.569 M206.369 239.139 C 210.073 239.556,215.911 239.548,215.651 239.126 C 215.514 238.905,213.191 238.784,209.715 238.818 C 205.179 238.862,204.491 238.928,206.369 239.139 M62.966 239.490 C 62.966 239.728,69.268 239.854,81.143 239.854 C 92.869 239.854,99.400 239.725,99.545 239.490 C 99.694 239.250,93.543 239.126,81.368 239.126 C 69.343 239.126,62.966 239.253,62.966 239.490 M346.133 239.490 C 346.872 239.968,358.872 239.968,358.872 239.490 C 358.872 239.261,356.419 239.129,352.229 239.132 C 347.806 239.136,345.769 239.256,346.133 239.490 M25.615 248.954 C 25.615 251.256,25.674 252.197,25.747 251.046 C 25.819 249.895,25.819 248.012,25.747 246.861 C 25.674 245.710,25.615 246.652,25.615 248.954 M320.357 251.547 C 320.321 252.273,320.205 253.419,320.099 254.095 C 319.924 255.218,319.941 255.247,320.298 254.427 C 320.513 253.934,320.629 252.788,320.556 251.879 C 320.438 250.426,320.414 250.386,320.357 251.547 M0.832 254.595 C 0.835 255.596,0.905 255.962,0.989 255.409 C 1.073 254.856,1.071 254.037,0.984 253.589 C 0.898 253.142,0.829 253.594,0.832 254.595 M345.410 253.755 C 345.407 254.293,345.569 254.835,345.769 254.959 C 346.234 255.246,346.234 254.040,345.769 253.321 C 345.493 252.894,345.415 252.989,345.410 253.755 M319.782 257.725 C 319.648 258.559,319.610 259.313,319.697 259.400 C 319.784 259.487,319.969 258.880,320.109 258.053 C 320.249 257.225,320.287 256.472,320.194 256.378 C 320.100 256.285,319.915 256.891,319.782 257.725 M1.211 258.963 C 1.213 260.364,1.279 260.893,1.358 260.137 C 1.436 259.382,1.435 258.236,1.355 257.590 C 1.274 256.944,1.210 257.561,1.211 258.963 M316.268 264.513 L 315.014 265.878 316.379 264.624 C 317.649 263.456,317.911 263.148,317.633 263.148 C 317.572 263.148,316.958 263.763,316.268 264.513 M310.282 267.516 C 309.291 267.768,309.274 267.795,310.100 267.811 C 310.601 267.821,311.338 267.688,311.738 267.516 C 312.635 267.130,311.798 267.130,310.282 267.516 M305.551 267.880 L 303.731 268.129 305.732 268.181 C 306.833 268.209,307.980 268.074,308.280 267.880 C 308.913 267.471,308.531 267.471,305.551 267.880 M40.221 268.248 C 40.343 268.446,41.198 268.608,42.120 268.608 C 44.193 268.608,44.049 268.419,41.746 268.118 C 40.632 267.972,40.079 268.019,40.221 268.248 M57.143 268.244 C 55.003 268.459,55.141 268.485,58.599 268.509 C 60.701 268.524,63.321 268.411,64.422 268.259 C 67.067 267.894,60.752 267.880,57.143 268.244 M281.347 268.244 C 276.868 268.439,277.142 268.462,284.440 268.501 C 288.844 268.525,293.267 268.417,294.268 268.261 C 296.453 267.920,288.989 267.910,281.347 268.244 M113.174 271.065 L 111.920 272.429 113.285 271.175 C 114.555 270.008,114.817 269.700,114.539 269.700 C 114.478 269.700,113.864 270.314,113.174 271.065 M109.719 274.522 L 108.280 276.069 109.827 274.630 C 111.266 273.292,111.541 272.975,111.266 272.975 C 111.206 272.975,110.510 273.672,109.719 274.522 M106.259 277.980 L 105.005 279.345 106.369 278.091 C 107.640 276.923,107.902 276.615,107.624 276.615 C 107.563 276.615,106.949 277.229,106.259 277.980 M102.983 281.256 L 101.729 282.621 103.094 281.366 C 104.364 280.199,104.626 279.891,104.348 279.891 C 104.287 279.891,103.673 280.505,102.983 281.256 M333.917 281.802 L 332.848 282.985 334.031 281.916 C 334.682 281.328,335.214 280.795,335.214 280.733 C 335.214 280.451,334.914 280.699,333.917 281.802 M11.647 281.461 C 11.647 281.523,12.179 282.056,12.830 282.643 L 14.013 283.712 12.944 282.530 C 11.947 281.427,11.647 281.179,11.647 281.461 M99.741 284.426 C 99.069 285.119,98.393 285.608,98.239 285.512 C 98.084 285.417,97.871 285.478,97.766 285.648 C 97.211 286.546,98.793 285.766,99.968 284.562 C 100.718 283.794,101.248 283.167,101.146 283.167 C 101.045 283.167,100.412 283.733,99.741 284.426 M96.068 288.171 L 94.813 289.536 96.178 288.282 C 97.449 287.114,97.711 286.806,97.433 286.806 C 97.372 286.806,96.758 287.420,96.068 288.171 M92.971 291.265 L 91.902 292.448 93.085 291.379 C 94.187 290.382,94.435 290.082,94.154 290.082 C 94.091 290.082,93.559 290.614,92.971 291.265 M27.510 291.532 C 27.694 291.715,28.581 291.949,29.481 292.053 C 30.382 292.157,30.792 292.153,30.391 292.045 C 27.665 291.310,27.206 291.228,27.510 291.532 M317.197 291.733 C 315.752 292.233,315.751 292.236,317.015 292.031 C 317.716 291.918,318.445 291.679,318.635 291.499 C 319.060 291.099,319.005 291.108,317.197 291.733 M38.581 293.358 C 38.581 293.558,38.990 293.722,39.490 293.722 C 39.991 293.722,40.400 293.558,40.400 293.358 C 40.400 293.157,39.991 292.994,39.490 292.994 C 38.990 292.994,38.581 293.157,38.581 293.358 M284.440 293.358 C 284.575 293.576,286.992 293.722,290.467 293.722 C 294.093 293.722,296.269 293.585,296.269 293.358 C 296.269 293.130,294.018 292.994,290.242 292.994 C 286.317 292.994,284.294 293.121,284.440 293.358 M55.930 293.964 C 55.520 294.373,55.641 362.804,56.051 363.057 C 56.293 363.207,56.415 351.596,56.415 328.502 C 56.415 309.373,56.360 293.722,56.294 293.722 C 56.227 293.722,56.063 293.831,55.930 293.964 " stroke="none" fill-rule="evenodd" style="fill: rgb(200, 97, 66);"/>
    <path id="path4" d="M136.943 0.635 C 138.494 0.703,141.033 0.703,142.584 0.635 C 144.136 0.566,142.866 0.510,139.763 0.510 C 136.661 0.510,135.391 0.566,136.943 0.635 M336.215 0.632 C 337.266 0.706,338.985 0.706,340.036 0.632 C 341.087 0.559,340.227 0.499,338.126 0.499 C 336.024 0.499,335.164 0.559,336.215 0.632 M96.360 0.985 C 96.811 1.072,97.548 1.072,97.998 0.985 C 98.449 0.898,98.080 0.827,97.179 0.827 C 96.278 0.827,95.910 0.898,96.360 0.985 M390.355 14.559 C 390.717 14.959,391.076 15.287,391.152 15.287 C 391.228 15.287,391.115 14.959,390.901 14.559 C 390.687 14.158,390.328 13.831,390.104 13.831 C 389.880 13.831,389.993 14.158,390.355 14.559 M183.924 25.751 C 205.910 25.802,241.779 25.802,263.632 25.751 C 285.486 25.699,267.498 25.656,223.658 25.656 C 179.818 25.656,161.938 25.699,183.924 25.751 M354.959 26.093 C 355.309 26.184,355.883 26.184,356.233 26.093 C 356.583 26.001,356.297 25.926,355.596 25.926 C 354.895 25.926,354.609 26.001,354.959 26.093 M54.110 43.919 C 53.708 44.321,53.824 54.231,54.231 54.231 C 54.457 54.231,54.595 52.229,54.595 48.954 C 54.595 46.051,54.540 43.676,54.474 43.676 C 54.407 43.676,54.243 43.785,54.110 43.919 M399.357 45.496 C 399.357 46.197,399.431 46.483,399.523 46.133 C 399.615 45.783,399.615 45.209,399.523 44.859 C 399.431 44.509,399.357 44.795,399.357 45.496 M79.408 49.751 C 79.373 52.191,79.468 54.265,79.618 54.358 C 79.768 54.452,79.847 53.110,79.793 51.377 C 79.622 45.818,79.474 45.194,79.408 49.751 M374.267 48.408 C 374.267 49.509,374.336 49.959,374.419 49.409 C 374.502 48.858,374.502 47.957,374.419 47.407 C 374.336 46.856,374.267 47.307,374.267 48.408 M41.952 54.492 C 42.505 54.576,43.324 54.574,43.772 54.487 C 44.220 54.401,43.767 54.332,42.766 54.335 C 41.765 54.338,41.399 54.409,41.952 54.492 M228.142 54.504 C 233.210 54.561,241.400 54.561,246.340 54.504 C 251.281 54.447,247.134 54.400,237.125 54.400 C 227.116 54.400,223.073 54.447,228.142 54.504 M304.550 54.852 C 305.000 54.939,305.737 54.939,306.187 54.852 C 306.638 54.765,306.269 54.694,305.369 54.694 C 304.468 54.694,304.099 54.765,304.550 54.852 M374.674 64.604 C 374.674 68.408,374.728 69.914,374.794 67.952 C 374.859 65.990,374.859 62.878,374.793 61.037 C 374.727 59.195,374.674 60.801,374.674 64.604 M11.806 66.333 L 10.737 67.516 11.920 66.447 C 13.023 65.450,13.270 65.150,12.989 65.150 C 12.926 65.150,12.394 65.682,11.806 66.333 M399.769 74.431 C 399.770 76.433,399.831 77.206,399.905 76.148 C 399.979 75.090,399.978 73.452,399.903 72.508 C 399.828 71.564,399.768 72.429,399.769 74.431 M55.596 79.975 C 56.447 80.052,57.839 80.052,58.690 79.975 C 59.540 79.899,58.844 79.836,57.143 79.836 C 55.441 79.836,54.745 79.899,55.596 79.975 M285.452 79.977 C 286.409 80.052,287.883 80.051,288.728 79.975 C 289.573 79.898,288.790 79.837,286.988 79.838 C 285.187 79.839,284.495 79.902,285.452 79.977 M345.405 98.111 C 345.405 98.882,345.552 99.315,345.769 99.181 C 345.969 99.057,346.133 98.474,346.133 97.886 C 346.133 97.297,345.969 96.815,345.769 96.815 C 345.569 96.815,345.405 97.398,345.405 98.111 M320.376 100.455 C 320.376 101.156,320.451 101.442,320.542 101.092 C 320.634 100.742,320.634 100.168,320.542 99.818 C 320.451 99.468,320.376 99.754,320.376 100.455 M69.882 107.734 C 69.882 107.934,70.701 108.098,71.702 108.098 C 72.702 108.098,73.521 107.934,73.521 107.734 C 73.521 107.534,72.702 107.370,71.702 107.370 C 70.701 107.370,69.882 107.534,69.882 107.734 M126.661 107.734 C 126.661 107.962,128.844 108.098,132.484 108.098 C 136.124 108.098,138.308 107.962,138.308 107.734 C 138.308 107.507,136.124 107.370,132.484 107.370 C 128.844 107.370,126.661 107.507,126.661 107.734 M0.500 114.832 C 0.501 117.034,0.561 117.888,0.633 116.729 C 0.706 115.571,0.705 113.769,0.632 112.726 C 0.559 111.682,0.499 112.630,0.500 114.832 M53.238 120.473 C 53.238 121.374,53.309 121.742,53.396 121.292 C 53.483 120.842,53.483 120.105,53.396 119.654 C 53.309 119.204,53.238 119.572,53.238 120.473 M187.535 120.291 C 187.539 121.092,187.613 121.377,187.701 120.924 C 187.788 120.471,187.784 119.816,187.693 119.468 C 187.602 119.120,187.531 119.490,187.535 120.291 M320.468 173.976 C 320.468 200.300,320.511 211.069,320.564 197.907 C 320.617 184.745,320.617 163.207,320.564 150.045 C 320.511 136.884,320.468 147.652,320.468 173.976 M169.524 132.384 C 170.178 132.465,171.161 132.463,171.708 132.380 C 172.255 132.297,171.720 132.231,170.519 132.233 C 169.318 132.235,168.870 132.303,169.524 132.384 M73.794 132.752 C 74.845 132.826,76.565 132.826,77.616 132.752 C 78.667 132.679,77.807 132.619,75.705 132.619 C 73.603 132.619,72.743 132.679,73.794 132.752 M113.489 132.756 C 116.354 132.818,120.940 132.818,123.680 132.756 C 126.420 132.694,124.076 132.644,118.471 132.644 C 112.866 132.644,110.624 132.695,113.489 132.756 M164.240 132.745 C 164.791 132.828,165.692 132.828,166.242 132.745 C 166.793 132.661,166.342 132.593,165.241 132.593 C 164.140 132.593,163.690 132.661,164.240 132.745 M25.645 175.796 C 25.645 184.504,25.692 188.066,25.750 183.712 C 25.808 179.359,25.808 172.234,25.750 167.880 C 25.692 163.526,25.645 167.088,25.645 175.796 M68.244 161.237 C 68.113 161.450,68.483 161.601,69.132 161.601 C 69.745 161.601,70.246 161.438,70.246 161.237 C 70.246 161.037,69.846 160.874,69.357 160.874 C 68.869 160.874,68.368 161.037,68.244 161.237 M261.328 161.237 C 261.328 161.473,265.696 161.601,273.703 161.601 C 281.711 161.601,286.078 161.473,286.078 161.237 C 286.078 161.002,281.711 160.874,273.703 160.874 C 265.696 160.874,261.328 161.002,261.328 161.237 M399.769 165.423 C 399.770 167.425,399.831 168.197,399.905 167.140 C 399.979 166.082,399.978 164.444,399.903 163.500 C 399.828 162.556,399.768 163.421,399.769 165.423 M290.343 164.885 C 290.987 165.561,291.576 166.040,291.651 165.950 C 291.727 165.861,291.200 165.308,290.480 164.722 L 289.172 163.656 290.343 164.885 M374.673 175.068 C 374.673 178.772,374.727 180.287,374.793 178.435 C 374.860 176.583,374.860 173.553,374.793 171.702 C 374.727 169.850,374.673 171.365,374.673 175.068 M53.503 173.612 C 53.503 174.213,53.667 174.704,53.867 174.704 C 54.067 174.704,54.231 174.213,54.231 173.612 C 54.231 173.012,54.067 172.520,53.867 172.520 C 53.667 172.520,53.503 173.012,53.503 173.612 M290.269 182.609 L 289.630 183.621 290.473 182.813 C 290.936 182.368,291.224 181.912,291.112 181.800 C 291.000 181.688,290.621 182.052,290.269 182.609 M374.267 191.447 C 374.267 192.548,374.336 192.998,374.419 192.448 C 374.502 191.897,374.502 190.996,374.419 190.446 C 374.336 189.895,374.267 190.346,374.267 191.447 M399.357 194.359 C 399.357 195.059,399.431 195.346,399.523 194.995 C 399.615 194.645,399.615 194.072,399.523 193.722 C 399.431 193.371,399.357 193.658,399.357 194.359 M100.910 214.285 C 103.662 214.347,108.167 214.347,110.919 214.285 C 113.672 214.223,111.419 214.172,105.914 214.172 C 100.409 214.172,98.157 214.223,100.910 214.285 M133.328 214.649 C 137.695 214.707,144.738 214.707,148.978 214.649 C 153.219 214.591,149.645 214.543,141.037 214.544 C 132.429 214.544,128.960 214.591,133.328 214.649 M218.016 214.759 C 218.917 214.920,220.555 215.041,221.656 215.029 L 223.658 215.007 221.838 214.724 C 220.837 214.568,219.199 214.447,218.198 214.454 L 216.379 214.468 218.016 214.759 M237.118 218.157 C 238.269 219.666,238.402 219.744,238.144 218.761 C 238.042 218.370,237.544 217.779,237.037 217.446 L 236.115 216.842 237.118 218.157 M387.244 228.677 C 386.134 229.720,385.492 230.369,385.817 230.118 C 386.142 229.868,386.559 229.649,386.744 229.633 C 386.928 229.616,387.630 228.960,388.304 228.177 C 389.943 226.270,389.667 226.401,387.244 228.677 M0.500 233.121 C 0.501 235.323,0.561 236.177,0.633 235.019 C 0.706 233.860,0.705 232.059,0.632 231.015 C 0.559 229.971,0.499 230.919,0.500 233.121 M236.554 236.084 C 235.784 236.894,235.586 237.254,236.037 237.022 C 236.929 236.564,238.217 235.184,237.977 234.944 C 237.881 234.848,237.241 235.361,236.554 236.084 M217.652 239.126 C 217.652 239.327,218.553 239.490,219.654 239.490 C 220.755 239.490,221.656 239.327,221.656 239.126 C 221.656 238.926,220.755 238.763,219.654 238.763 C 218.553 238.763,217.652 238.926,217.652 239.126 M114.468 239.490 C 114.210 239.907,139.775 239.920,148.681 239.508 C 152.337 239.339,147.627 239.234,134.416 239.191 C 121.590 239.149,114.614 239.254,114.468 239.490 M359.600 239.490 C 359.600 239.691,359.927 239.854,360.328 239.854 C 360.728 239.854,361.056 239.691,361.056 239.490 C 361.056 239.290,360.728 239.126,360.328 239.126 C 359.927 239.126,359.600 239.290,359.600 239.490 M320.376 247.498 C 320.376 248.198,320.451 248.485,320.542 248.135 C 320.634 247.784,320.634 247.211,320.542 246.861 C 320.451 246.510,320.376 246.797,320.376 247.498 M42.497 268.137 C 42.950 268.224,43.605 268.221,43.953 268.130 C 44.301 268.039,43.931 267.968,43.130 267.972 C 42.329 267.976,42.045 268.050,42.497 268.137 M54.322 268.141 C 54.873 268.224,55.773 268.224,56.324 268.141 C 56.874 268.057,56.424 267.989,55.323 267.989 C 54.222 267.989,53.772 268.057,54.322 268.141 M72.709 268.144 C 73.363 268.225,74.346 268.223,74.893 268.140 C 75.440 268.057,74.904 267.991,73.703 267.993 C 72.502 267.995,72.055 268.063,72.709 268.144 M272.684 268.151 C 274.426 268.217,277.374 268.218,279.235 268.151 C 281.097 268.085,279.672 268.031,276.069 268.030 C 272.466 268.030,270.943 268.084,272.684 268.151 M46.320 268.505 C 46.873 268.589,47.692 268.586,48.140 268.500 C 48.587 268.414,48.135 268.345,47.134 268.348 C 46.133 268.351,45.767 268.421,46.320 268.505 M151.166 268.517 C 170.750 268.569,202.688 268.569,222.140 268.517 C 241.592 268.465,225.569 268.422,186.533 268.422 C 147.498 268.422,131.583 268.465,151.166 268.517 M335.349 280.521 C 334.176 281.954,334.106 282.122,334.929 281.522 C 335.474 281.125,335.924 280.650,335.930 280.465 C 335.937 280.281,336.213 279.831,336.544 279.465 C 336.875 279.098,337.059 278.799,336.952 278.799 C 336.845 278.799,336.123 279.574,335.349 280.521 M87.727 295.964 C 84.230 299.499,81.306 302.580,81.229 302.811 C 81.097 303.206,89.791 294.618,92.925 291.257 C 96.557 287.362,93.482 290.146,87.727 295.964 M36.761 293.358 C 36.761 293.558,37.006 293.722,37.307 293.722 C 37.607 293.722,37.853 293.558,37.853 293.358 C 37.853 293.157,37.607 292.994,37.307 292.994 C 37.006 292.994,36.761 293.157,36.761 293.358 M298.817 293.358 C 298.817 293.558,299.554 293.722,300.455 293.722 C 301.356 293.722,302.093 293.558,302.093 293.358 C 302.093 293.157,301.356 292.994,300.455 292.994 C 299.554 292.994,298.817 293.157,298.817 293.358 M122.458 297.088 L 121.019 298.635 122.566 297.196 C 124.005 295.858,124.280 295.541,124.005 295.541 C 123.945 295.541,123.249 296.237,122.458 297.088 M118.998 300.546 L 117.743 301.911 119.108 300.657 C 120.379 299.489,120.641 299.181,120.363 299.181 C 120.302 299.181,119.688 299.795,118.998 300.546 M115.542 304.004 L 114.104 305.551 115.651 304.112 C 117.089 302.774,117.365 302.457,117.089 302.457 C 117.030 302.457,116.334 303.153,115.542 304.004 M112.267 307.279 L 110.828 308.826 112.375 307.387 C 113.813 306.049,114.089 305.732,113.814 305.732 C 113.754 305.732,113.058 306.429,112.267 307.279 M108.985 310.555 L 107.916 311.738 109.099 310.669 C 110.202 309.672,110.449 309.372,110.168 309.372 C 110.106 309.372,109.573 309.904,108.985 310.555 M105.346 314.195 L 104.277 315.378 105.460 314.309 C 106.562 313.312,106.810 313.012,106.529 313.012 C 106.466 313.012,105.934 313.544,105.346 314.195 M102.076 317.470 L 100.637 319.017 102.184 317.579 C 103.622 316.241,103.898 315.924,103.623 315.924 C 103.563 315.924,102.867 316.620,102.076 317.470 M98.794 320.746 L 97.725 321.929 98.908 320.860 C 100.011 319.864,100.258 319.563,99.977 319.563 C 99.914 319.563,99.382 320.096,98.794 320.746 M95.155 324.386 L 94.086 325.569 95.268 324.500 C 96.371 323.503,96.619 323.203,96.337 323.203 C 96.275 323.203,95.742 323.735,95.155 324.386 M91.879 327.662 L 90.810 328.844 91.993 327.775 C 93.095 326.779,93.343 326.479,93.062 326.479 C 92.999 326.479,92.467 327.011,91.879 327.662 M88.603 330.937 L 87.534 332.120 88.717 331.051 C 89.820 330.055,90.067 329.754,89.786 329.754 C 89.723 329.754,89.191 330.287,88.603 330.937 M81.688 337.853 L 80.619 339.035 81.802 337.966 C 82.904 336.970,83.152 336.670,82.871 336.670 C 82.808 336.670,82.276 337.202,81.688 337.853 M78.412 341.128 L 77.343 342.311 78.526 341.242 C 79.629 340.246,79.876 339.945,79.595 339.945 C 79.532 339.945,79.000 340.478,78.412 341.128 M75.136 344.404 L 74.067 345.587 75.250 344.518 C 76.353 343.521,76.600 343.221,76.319 343.221 C 76.257 343.221,75.724 343.753,75.136 344.404 M68.221 351.319 L 67.152 352.502 68.335 351.433 C 69.437 350.437,69.685 350.136,69.404 350.136 C 69.341 350.136,68.809 350.669,68.221 351.319 M64.945 354.595 L 63.876 355.778 65.059 354.709 C 66.162 353.713,66.409 353.412,66.128 353.412 C 66.066 353.412,65.533 353.944,64.945 354.595 " stroke="none" fill-rule="evenodd" style="fill: rgb(200, 97, 66);"/>
  </g>
</svg>